<?xml version="1.0" encoding="UTF-8"?>
<!DOCTYPE svg  PUBLIC '-//W3C//DTD SVG 1.1//EN'  'http://www.w3.org/Graphics/SVG/1.1/DTD/svg11.dtd'>
<svg width="357.12pt" height="266.11pt" version="1.1" viewBox="0 0 357.12 266.11" xmlns="http://www.w3.org/2000/svg">
<metadata>
<rdf:RDF xmlns:cc="http://creativecommons.org/ns#" xmlns:dc="http://purl.org/dc/elements/1.1/" xmlns:rdf="http://www.w3.org/1999/02/22-rdf-syntax-ns#">
<cc:Work>
<dc:type rdf:resource="http://purl.org/dc/dcmitype/StillImage"/>
<dc:date>2020-10-16T12:12:51.100826</dc:date>
<dc:format>image/svg+xml</dc:format>
<dc:creator>
<cc:Agent>
<dc:title>Matplotlib v3.3.2, https://matplotlib.org/</dc:title>
</cc:Agent>
</dc:creator>
</cc:Work>
</rdf:RDF>
</metadata>
<defs>
<style type="text/css">*{stroke-linecap:butt;stroke-linejoin:round;}</style>
</defs>
<path d="m0 266.11h357.12v-266.11h-357.12z" fill="none"/>
<path d="m2.0176 2.0008 5.3229 18.446 5.3229 17.332 3.5486 10.936 3.5486 10.44 3.5486 9.9453 3.5486 9.4502 3.5486 8.9551 3.5486 8.4599 3.5486 7.9648 3.5486 7.4696 3.5486 6.9745 3.5486 6.4793 3.5486 5.9842 3.5486 5.489 3.5486 4.9939 3.5486 4.4988 3.5486 4.0036 3.5486 3.5085 3.5486 3.0133 3.5486 2.5182 3.5486 2.023 1.7743 0.82583 1.7743 0.70205 1.7743 0.57826 1.7743 0.45447 1.7743 0.33069 1.7743 0.2069 1.7743 0.083114 1.7743-0.040673 1.7743-0.16446 1.7743-0.28824 1.7743-0.41203 1.7743-0.53582 1.7743-0.6596 1.7743-0.78339 3.5486-1.9381 3.5486-2.4333 3.5486-2.9284 3.5486-3.4236 3.5486-3.9187 3.5486-4.4139 3.5486-4.909 3.5486-5.4042 3.5486-5.8993 3.5486-6.3944 3.5486-6.8896 3.5486-7.3847 3.5486-7.8799 3.5486-8.375 3.5486-8.8702 3.5486-9.3653 3.5486-9.8605 3.5486-10.356 3.5486-10.851 1.7743-5.6111 1.7743-1.7834 5.3229 22.17 5.3229 21.056 5.3229 19.942 5.3229 18.828 5.3229 17.714 3.5486 11.19 3.5486 10.695 3.5486 10.2 3.5486 9.7048 3.5486 9.2097 3.5486 8.7146 3.5486 8.2194 3.5486 7.7243 3.5486 7.2291 3.5486 6.734 3.5486 6.2388 3.5486 5.7437 3.5486 5.2485 3.5486 4.7534 3.5486 4.2582 3.5486 3.7631 3.5486 3.268 3.5486 2.7728 3.5486 2.2777 3.5486 1.7825 1.7743 0.70558 1.7743 0.5818 1.7743 0.45801 1.7743 0.33422 1.7743 0.21044 1.7743 0.08665 1.7743-0.037136 1.7743-0.16092 1.7743-0.28471 1.7743-0.4085 1.7743-0.53228 1.7743-0.65607 1.7743-0.77985 3.5486-1.9311 3.5486-2.4262 3.5486-2.9214 3.5486-3.4165 3.5486-3.9116 3.5486-4.4068 3.5486-4.9019 3.5486-5.3971 3.5486-5.8922 3.5486-6.3874 3.5486-6.8825 3.5486-7.3777 3.5486-7.8728 3.5486-8.368 3.5486-8.8631 3.5486-9.3582 1.7743-4.8648v0" clip-path="url(#a)" fill="none" stroke="#1f77b4" stroke-linecap="square" stroke-width="1.5"/>
<path d="m2.0176 2.0008 5.3229 18.446 5.3229 17.332 3.5486 10.936 3.5486 10.44 3.5486 9.9453 3.5486 9.4502 3.5486 8.9551 3.5486 8.4599 3.5486 7.9648 3.5486 7.4696 3.5486 6.9745 3.5486 6.4793 3.5486 5.9842 3.5486 5.489 3.5486 4.9939 3.5486 4.4988 3.5486 4.0036 3.5486 3.5085 3.5486 3.0133 3.5486 2.5182 3.5486 2.023 5.3229 2.7093 3.5486 1.8768 5.3229 2.8124 122.43 63.914 1.7743 0.8581 3.5486 1.8665 5.3229 2.8196 46.132 23.99 1.7743 0.70558 1.7743 0.5818 1.7743 0.45801 1.7743 0.33422 1.7743 0.21044 1.7743 0.08665 1.7743-0.037136 1.7743-0.16092 1.7743-0.28471 1.7743-0.4085 1.7743-0.53228 1.7743-0.65607 1.7743-0.77985 3.5486-1.9311 3.5486-2.4262 3.5486-2.9214 3.5486-3.4165 3.5486-3.9116 3.5486-4.4068 3.5486-4.9019 3.5486-5.3971 3.5486-5.8922 3.5486-6.3874 3.5486-6.8825 3.5486-7.3777 3.5486-7.8728 3.5486-8.368 3.5486-8.8631 3.5486-9.3582 1.7743-4.8648v0" clip-path="url(#a)" fill="none" stroke="#ff7f0e" stroke-linecap="square" stroke-width="1.5"/>
<defs>
<clipPath id="a">
<rect width="357.12" height="266.11"/>
</clipPath>
</defs>
</svg>
