<?xml version="1.0" encoding="UTF-8"?>
<svg width="460pt" height="320pt" version="1.1" viewBox="0 0 460 320" xmlns="http://www.w3.org/2000/svg">
<path d="m135 260 238.67-238.67" fill="none" stroke="#000" stroke-miterlimit="10" stroke-width="7"/>
<path d="m366.9 14.566 23.098-9.5664-9.5664 23.098"/>
<path d="m248.4 235c41.422 41.422 41.422 75 0 75-41.422 0-108.58-33.578-150-75-41.422-41.422-41.422-75 0-75 41.422 0 108.58 33.578 150 75" fill="#ca3b33"/>
<path d="m185 85c41.422 41.422 41.422 75 0 75s-108.58-33.578-150-75-41.422-75 0-75 108.58 33.578 150 75" fill="#389725"/>
<path d="m421.6 235c41.422 41.422 41.422 75 0 75-41.422 0-108.58-33.578-150-75-41.422-41.422-41.422-75 0-75 41.422 0 108.58 33.578 150 75" fill="#9457b1"/>
<path d="m382.5 47.5c15.199 15.199 18.852 28.66 9.0391 33.316-9.8086 4.6562-30.844-0.55469-52.055-12.902-21.211-12.344-37.75-29-40.934-41.223-3.1875-12.219 7.7109-17.215 26.969-12.355" fill="none" stroke="#4062d7" stroke-miterlimit="10" stroke-width="4"/>
<path d="m319.66 5.7461 20.102 13.438-6.7812 6.6602" fill="#4062d7"/>
</svg>
