<?xml version="1.0" encoding="UTF-8"?>
<svg version="1.1" viewBox="0 0 512 512" xmlns="http://www.w3.org/2000/svg" xmlns:xlink="http://www.w3.org/1999/xlink">
<path d="m-401.97 89.283c10.206 6.6407 21.55 11.522 33.082 15.346 4.9161 1.6302 9.8114 3.4712 14.914 4.3587 5.9776 1.0397 12.099 0.92798 18.149 1.392 6.195-0.23254 12.468 0.31088 18.585-0.69764 12.198-2.0111 27.895-8.3246 38.285-14.836 3.454-2.1646 6.0643-5.4495 9.0417-8.2335 20.876-19.519 12.914-11.418 31.348-32.981 14.718-19.666 29.284-39.989 38.776-62.818 2.2776-5.4779 4.6622-10.985 5.9321-16.78 1.724-7.8671 1.999-15.983 2.9986-23.974-0.25236-9.4376-0.0952-18.895-0.7571-28.313-1.3389-19.049-4.2994-37.348-7.9192-56.055-2.5022-12.931-5.4614-25.38-8.9443-38.045-1.0683-3.8847-2.3033-7.7217-3.455-11.583-3.1578-8.7554-1.4885-5.0585-4.6147-11.26l12.442-6.9813c2.3873 6.8007 1.1084 2.8093 3.577 12.054 5.9242 25.662 10.901 51.558 14.517 77.654 1.3596 9.8108 2.704 19.632 3.5631 29.499 0.81441 9.3541 0.96966 18.754 1.4545 28.131-0.65324 7.9241-0.458 15.964-1.9597 23.772-1.1257 5.8529-3.6016 11.377-5.8615 16.893-9.4901 23.16-24.357 43.642-39.404 63.423-4.8999 5.7719-9.5062 11.806-14.7 17.316-15.048 15.964-25.092 23.406-45.018 35.448-10.908 6.5921-26.235 12.683-38.909 14.699-6.1545 0.97879-12.457 0.40683-18.685 0.61025-6.2272-0.44285-12.525-0.2954-18.682-1.3286-5.1599-0.86587-10.095-2.7646-15.085-4.3377-12.065-3.8034-23.872-8.5445-35.105-14.36l12.432-8.0131z" fill="none" stop-color="#000000" style="-inkscape-stroke:none;font-variation-settings:normal"/>
<path id="a" d="m13.954-278.09h68.633c75.34 0 67.532 181.3 0 181.3h-68.633z" fill-rule="evenodd" stop-color="#000000" stroke="#000" stroke-linecap="round" stroke-linejoin="round" stroke-width="3"/>
<path d="m0 257.82h96.802" fill="#f9f9f9" fill-rule="evenodd" stop-color="#000000" stroke="#000" stroke-linejoin="round" stroke-width="5.7794"/>
<ellipse cx="227.99" cy="385.77" rx="17.762" ry="17.692" fill="#4063d8" fill-rule="evenodd" stop-color="#000000" stroke="#000" stroke-linecap="round" stroke-linejoin="round" stroke-width="3.7972"/>
<path d="m118.04 216.61c97.458-26.66 160.73-127.22 263.22-141.22" fill="none" stroke="#000" stroke-width="4.5466"/>
<path d="m118.4 257.82c93.767-8.9992 170.43 65.986 257.33 87.457" fill="none" stroke="#000" stroke-width="4.5466"/>
<path d="m117.17 299.04c18.395-2.1518 38.7 10.058 47.64 29.197 9.8696 21.131 9.6493 61.156 42.295 57.935l3.1188-0.40075" fill="none" stroke="#000" stroke-width="4.5466"/>
<path d="m238.64 401.65c8.6652 22.494 15.04 58.932 42.554 60.44 30.806 1.6887 59.256-17.183 88.154-25.484" fill="none" stroke="#000" stroke-width="4.5466"/>
<path d="m238.64 371.51c56.789-52.276 54.048-145.76 114.87-194.19 11.174-8.898 25.951-13.191 40.112-10.602" fill="none" stroke="#000" stroke-width="4.5466"/>
<path d="m397.66 390.94h114.34" fill="#f9f9f9" fill-rule="evenodd" stop-color="#000000" stroke="#000" stroke-linejoin="round" stroke-width="5.7049"/>
<use transform="matrix(.90932 0 0 .90932 352.24 561.38)" width="100%" height="100%" fill="#cb3c33" xlink:href="#a"/>
<path d="m397.07 121.06h114.93" fill="#f9f9f9" fill-rule="evenodd" stop-color="#000000" stroke="#000" stroke-linejoin="round" stroke-width="5.6974"/>
<use transform="matrix(.90932 0 0 .90932 350.9 291.49)" width="100%" height="100%" fill="#9558b2" stroke-width="5" xlink:href="#a"/>
<use transform="matrix(.90932 0 0 .90932 23.214 426.44)" width="100%" height="100%" fill="#389826" xlink:href="#a"/>
<path d="m932.6 258.01h80.926" fill="#f9f9f9" fill-rule="evenodd" stop-color="#000000" stroke="#000" stroke-linejoin="round" stroke-width="3.8029"/>
<ellipse cx="1157.8" cy="398.71" rx="19.534" ry="19.457" fill-rule="evenodd" stop-color="#000000" stroke="#000" stroke-linecap="round" stroke-linejoin="round" stroke-width="4.1759"/>
<path d="m1036.9 212.68c107.18-29.318 176.76-139.9 289.47-155.3" fill="none" stroke="#000" stroke-width="5"/>
<path d="m1037.3 258.01c103.12-9.8966 187.43 72.566 283 96.178" fill="none" stroke="#000" stroke-width="5"/>
<path d="m1035.9 303.33c20.23-2.3664 42.559 11.061 52.39 32.109 10.854 23.238 10.612 67.254 46.513 63.712 0 0 3.4299-0.44071 3.4299-0.44071" fill="none" stroke="#000" stroke-width="5"/>
<path d="m1169.5 416.18c9.5293 24.737 16.54 64.809 46.797 66.468 33.878 1.8571 65.165-18.896 96.945-28.025" fill="none" stroke="#000" stroke-width="5"/>
<path d="m1169.5 383.03c62.453-57.49 59.437-160.29 126.32-213.55 12.288-9.7853 28.539-14.506 44.112-11.66" fill="none" stroke="#000" stroke-width="5"/>
<path d="m1344.4 404.4h100.21" fill="#f9f9f9" fill-rule="evenodd" stop-color="#000000" stroke="#000" stroke-linejoin="round" stroke-width="4.3248"/>
<use transform="translate(1294.4 591.84)" width="100%" height="100%" fill="#f9f9f9" xlink:href="#a"/>
<path d="m1343.7 107.6h100.86" fill="#f9f9f9" fill-rule="evenodd" stop-color="#000000" stroke="#000" stroke-linejoin="round" stroke-width="4.3388"/>
<use transform="translate(1293 295.03)" width="100%" height="100%" fill="#f9f9f9" stroke-width="5" xlink:href="#a"/>
<use transform="translate(932.6 443.43)" width="100%" height="100%" fill="#f9f9f9" xlink:href="#a"/>
<g transform="translate(1047.8 -786.47)">
<path d="m0 258.01h80.926" fill="#f9f9f9" fill-rule="evenodd" stop-color="#000000" stroke="#000" stroke-linejoin="round" stroke-width="5"/>
<ellipse cx="225.19" cy="398.71" rx="19.534" ry="19.457" fill="#4063d8" fill-rule="evenodd" stop-color="#000000" stroke="#000" stroke-linecap="round" stroke-linejoin="round" stroke-width="4.1759"/>
<path d="m104.29 212.68c107.18-29.318 176.76-139.9 289.47-155.3" fill="none" stroke="#000" stroke-width="5"/>
<path d="m104.68 258.01c103.12-9.8966 187.43 72.566 283 96.178" fill="none" stroke="#000" stroke-width="5"/>
<path d="m103.33 303.33c20.23-2.3664 42.559 11.06 52.39 32.109 10.854 23.238 10.612 67.254 46.513 63.712 0 0 3.4299-0.44071 3.4299-0.44071" fill="none" stroke="#000" stroke-width="5"/>
<path d="m236.91 416.18c9.5293 24.737 16.54 64.809 46.797 66.468 33.878 1.8571 65.165-18.896 96.945-28.025" fill="none" stroke="#000" stroke-width="5"/>
<path d="m236.91 383.03c62.453-57.49 59.437-160.29 126.32-213.55 12.288-9.7853 28.539-14.506 44.112-11.66" fill="none" stroke="#000" stroke-width="5"/>
<path d="m411.79 404.4h100.21" fill="#f9f9f9" fill-rule="evenodd" stop-color="#000000" stroke="#000" stroke-linejoin="round" stroke-width="5"/>
<use transform="translate(361.84 591.84)" width="100%" height="100%" fill="#cb3c33" xlink:href="#a"/>
<path d="m411.14 107.6h100.86" fill="#f9f9f9" fill-rule="evenodd" stop-color="#000000" stroke="#000" stroke-linejoin="round" stroke-width="5"/>
<use transform="translate(360.37 295.03)" width="100%" height="100%" fill="#9558b2" stroke-width="5" xlink:href="#a"/>
<use transform="translate(0 443.43)" width="100%" height="100%" fill="#389826" xlink:href="#a"/>
</g>
</svg>
