<?xml version="1.0" encoding="UTF-8"?>
<svg width="411.42pt" height="102.32pt" version="1.1" viewBox="0 0 411.42 102.32" xmlns="http://www.w3.org/2000/svg" xmlns:xlink="http://www.w3.org/1999/xlink">
<defs>
<symbol id="h" overflow="visible">
<path d="m0.5625-3.4062c0 2.0625 1.6094 3.625 3.4688 3.625 1.625 0 2.5938-1.3906 2.5938-2.5469 0-0.09375 0-0.17188-0.125-0.17188-0.10938 0-0.10938 0.0625-0.125 0.17188-0.078125 1.4219-1.1406 2.2344-2.2344 2.2344-0.60938 0-2.5625-0.32812-2.5625-3.3125 0-2.9688 1.9531-3.3125 2.5625-3.3125 1.0781 0 1.9688 0.90625 2.1719 2.3594 0.015625 0.14062 0.015625 0.17188 0.15625 0.17188 0.15625 0 0.15625-0.03125 0.15625-0.23438v-2.3594c0-0.17188 0-0.25-0.10938-0.25-0.03125 0-0.078125 0-0.15625 0.125l-0.5 0.73438c-0.35938-0.35938-0.875-0.85938-1.8281-0.85938-1.875 0-3.4688 1.5938-3.4688 3.625z"/>
</symbol>
<symbol id="c" overflow="visible">
<path d="m3.8906-0.78125v0.89062l1.4375-0.10938v-0.3125c-0.6875 0-0.76562-0.0625-0.76562-0.5625v-3.5312l-1.4688 0.10938v0.3125c0.6875 0 0.78125 0.0625 0.78125 0.5625v1.7656c0 0.875-0.48438 1.5469-1.2188 1.5469-0.82812 0-0.875-0.46875-0.875-0.98438v-3.3125l-1.4688 0.10938v0.3125c0.78125 0 0.78125 0.03125 0.78125 0.90625v1.5c0 0.78125 0 1.6875 1.5156 1.6875 0.5625 0 1-0.28125 1.2812-0.89062z"/>
</symbol>
<symbol id="b" overflow="visible">
<path d="m1.7188-3.9844h1.4375v-0.3125h-1.4375v-1.8281h-0.25c0 0.8125-0.29688 1.875-1.2812 1.9219v0.21875h0.84375v2.75c0 1.2188 0.9375 1.3438 1.2969 1.3438 0.70312 0 0.98438-0.70312 0.98438-1.3438v-0.5625h-0.25v0.54688c0 0.73438-0.29688 1.1094-0.67188 1.1094-0.67188 0-0.67188-0.90625-0.67188-1.0781z"/>
</symbol>
<symbol id="g" overflow="visible">
<path d="m1.75-4.2969v-1.1562c0-0.875 0.46875-1.3594 0.90625-1.3594 0.03125 0 0.1875 0 0.32812 0.078125-0.10938 0.03125-0.29688 0.17188-0.29688 0.42188 0 0.21875 0.15625 0.42188 0.4375 0.42188s0.4375-0.20312 0.4375-0.4375c0-0.375-0.375-0.70312-0.90625-0.70312-0.6875 0-1.5469 0.53125-1.5469 1.5938v1.1406h-0.78125v0.3125h0.78125v3.2344c0 0.4375-0.10938 0.4375-0.76562 0.4375v0.3125c0.39062-0.015625 0.85938-0.03125 1.125-0.03125 0.40625 0 0.875 0 1.2656 0.03125v-0.3125h-0.20312c-0.73438 0-0.75-0.10938-0.75-0.46875v-3.2031h1.125v-0.3125z"/>
</symbol>
<symbol id="f" overflow="visible">
<path d="m4.6875-2.1406c0-1.2656-0.98438-2.3281-2.1875-2.3281-1.25 0-2.2188 1.0938-2.2188 2.3281 0 1.2969 1.0312 2.25 2.2031 2.25 1.2031 0 2.2031-0.98438 2.2031-2.25zm-2.1875 2c-0.4375 0-0.875-0.20312-1.1406-0.67188-0.25-0.4375-0.25-1.0469-0.25-1.4062 0-0.39062 0-0.92188 0.23438-1.3594 0.26562-0.45312 0.73438-0.67188 1.1406-0.67188 0.4375 0 0.85938 0.21875 1.125 0.65625 0.26562 0.42188 0.26562 1 0.26562 1.375 0 0.35938 0 0.90625-0.21875 1.3438-0.23438 0.45312-0.67188 0.73438-1.1562 0.73438z"/>
</symbol>
<symbol id="a" overflow="visible">
<path d="m1.6719-3.3125v-1.0938l-1.3906 0.10938v0.3125c0.70312 0 0.78125 0.0625 0.78125 0.5625v2.6719c0 0.4375-0.10938 0.4375-0.78125 0.4375v0.3125c0.39062-0.015625 0.85938-0.03125 1.1406-0.03125 0.39062 0 0.85938 0 1.2656 0.03125v-0.3125h-0.21875c-0.73438 0-0.75-0.10938-0.75-0.46875v-1.5312c0-0.98438 0.42188-1.875 1.1719-1.875 0.0625 0 0.09375 0 0.10938 0.015625-0.03125 0-0.23438 0.125-0.23438 0.39062s0.21875 0.42188 0.4375 0.42188c0.17188 0 0.42188-0.125 0.42188-0.4375s-0.3125-0.60938-0.73438-0.60938c-0.73438 0-1.0938 0.67188-1.2188 1.0938z"/>
</symbol>
<symbol id="m" overflow="visible">
<path d="m3.9688-6.9375c-0.046875-0.125-0.078125-0.20312-0.23438-0.20312s-0.1875 0.0625-0.23438 0.20312l-2.0625 5.9531c-0.1875 0.51562-0.57812 0.67188-1.125 0.67188v0.3125c0.23438-0.015625 0.67188-0.03125 1.0156-0.03125 0.3125 0 0.82812 0.015625 1.1562 0.03125v-0.3125c-0.5 0-0.75-0.25-0.75-0.5 0-0.03125 0.015625-0.14062 0.015625-0.15625l0.46875-1.2969h2.4531l0.53125 1.5156c0.015625 0.046875 0.03125 0.10938 0.03125 0.14062 0 0.29688-0.5625 0.29688-0.82812 0.29688v0.3125c0.35938-0.03125 1.0625-0.03125 1.4375-0.03125 0.42188 0 0.89062 0.015625 1.2969 0.03125v-0.3125h-0.17188c-0.59375 0-0.73438-0.0625-0.84375-0.39062zm-0.53125 1.1094 1.125 3.25h-2.2344z"/>
</symbol>
<symbol id="l" overflow="visible">
<path d="m4.1406-3.3125c0.09375-0.23438 0.26562-0.67188 0.92188-0.67188v-0.3125c-0.23438 0.015625-0.51562 0.03125-0.75 0.03125s-0.6875-0.015625-0.85938-0.03125v0.3125c0.35938 0 0.46875 0.23438 0.46875 0.42188 0 0.09375-0.015625 0.14062-0.046875 0.25l-1.0312 2.5312-1.1094-2.7812c-0.0625-0.125-0.0625-0.14062-0.0625-0.17188 0-0.25 0.39062-0.25 0.57812-0.25v-0.3125c-0.3125 0.015625-0.85938 0.03125-1.0938 0.03125-0.26562 0-0.67188-0.015625-0.96875-0.03125v0.3125c0.625 0 0.67188 0.0625 0.79688 0.35938l1.4375 3.5469c0.0625 0.14062 0.078125 0.1875 0.20312 0.1875 0.14062 0 0.17188-0.09375 0.21875-0.1875z"/>
</symbol>
<symbol id="e" overflow="visible">
<path d="m1.1094-2.5156c0.0625-1.4844 0.90625-1.7344 1.25-1.7344 1.0156 0 1.125 1.3438 1.125 1.7344zm0 0.21875h2.7812c0.21875 0 0.25 0 0.25-0.21875 0-0.98438-0.54688-1.9531-1.7812-1.9531-1.1562 0-2.0781 1.0312-2.0781 2.2812 0 1.3281 1.0469 2.2969 2.1875 2.2969 1.2188 0 1.6719-1.1094 1.6719-1.2969 0-0.09375-0.078125-0.125-0.14062-0.125-0.078125 0-0.10938 0.0625-0.125 0.14062-0.34375 1.0312-1.25 1.0312-1.3438 1.0312-0.5 0-0.89062-0.29688-1.125-0.67188-0.29688-0.46875-0.29688-1.125-0.29688-1.4844z"/>
</symbol>
<symbol id="p" overflow="visible">
<path d="m3.3125-0.75c0.046875 0.39062 0.3125 0.8125 0.78125 0.8125 0.21875 0 0.82812-0.14062 0.82812-0.95312v-0.5625h-0.25v0.5625c0 0.57812-0.25 0.64062-0.35938 0.64062-0.32812 0-0.375-0.45312-0.375-0.5v-1.9844c0-0.42188 0-0.8125-0.35938-1.1875-0.39062-0.39062-0.89062-0.54688-1.3594-0.54688-0.82812 0-1.5156 0.46875-1.5156 1.125 0 0.29688 0.20312 0.46875 0.46875 0.46875 0.28125 0 0.45312-0.20312 0.45312-0.45312 0-0.125-0.046875-0.45312-0.51562-0.45312 0.28125-0.35938 0.76562-0.46875 1.0781-0.46875 0.5 0 1.0625 0.39062 1.0625 1.2812v0.35938c-0.51562 0.03125-1.2031 0.0625-1.8281 0.35938-0.75 0.34375-1 0.85938-1 1.2969 0 0.8125 0.96875 1.0625 1.5938 1.0625 0.65625 0 1.1094-0.40625 1.2969-0.85938zm-0.0625-1.6406v1c0 0.9375-0.71875 1.2812-1.1719 1.2812-0.48438 0-0.89062-0.34375-0.89062-0.84375 0-0.54688 0.42188-1.375 2.0625-1.4375z"/>
</symbol>
<symbol id="o" overflow="visible">
<path d="m2.2188-1.7188c-0.875 0-0.875-1-0.875-1.2188 0-0.26562 0.015625-0.59375 0.15625-0.84375 0.078125-0.10938 0.3125-0.39062 0.71875-0.39062 0.85938 0 0.85938 0.98438 0.85938 1.2188 0 0.26562 0 0.59375-0.15625 0.84375-0.078125 0.10938-0.3125 0.39062-0.70312 0.39062zm-1.1562 0.39062c0-0.03125 0-0.26562 0.15625-0.46875 0.39062 0.28125 0.8125 0.3125 1 0.3125 0.92188 0 1.6094-0.6875 1.6094-1.4531 0-0.375-0.15625-0.73438-0.40625-0.96875 0.35938-0.34375 0.71875-0.39062 0.89062-0.39062 0.03125 0 0.078125 0 0.10938 0.015625-0.10938 0.03125-0.17188 0.14062-0.17188 0.26562 0 0.17188 0.14062 0.28125 0.29688 0.28125 0.09375 0 0.28125-0.0625 0.28125-0.29688 0-0.17188-0.10938-0.48438-0.5-0.48438-0.20312 0-0.64062 0.0625-1.0625 0.46875-0.42188-0.32812-0.82812-0.35938-1.0469-0.35938-0.9375 0-1.625 0.6875-1.625 1.4531 0 0.4375 0.21875 0.8125 0.46875 1.0312-0.125 0.14062-0.3125 0.46875-0.3125 0.82812 0 0.3125 0.14062 0.6875 0.45312 0.89062-0.60938 0.15625-0.92188 0.59375-0.92188 0.98438 0 0.71875 0.98438 1.2656 2.2031 1.2656 1.1719 0 2.2031-0.5 2.2031-1.2812 0-0.34375-0.125-0.85938-0.64062-1.1406-0.53125-0.26562-1.1094-0.26562-1.7188-0.26562-0.25 0-0.67188 0-0.75-0.015625-0.3125-0.046875-0.51562-0.34375-0.51562-0.67188zm1.4375 3.1562c-1.0156 0-1.7031-0.51562-1.7031-1.0469 0-0.45312 0.375-0.82812 0.8125-0.84375h0.59375c0.85938 0 1.9688 0 1.9688 0.84375 0 0.54688-0.70312 1.0469-1.6719 1.0469z"/>
</symbol>
<symbol id="n" overflow="visible">
<path d="m1.1719-2.1719c0-1.625 0.8125-2.0469 1.3438-2.0469 0.09375 0 0.71875 0.015625 1.0625 0.375-0.40625 0.03125-0.46875 0.32812-0.46875 0.45312 0 0.26562 0.1875 0.45312 0.45312 0.45312s0.46875-0.15625 0.46875-0.46875c0-0.67188-0.76562-1.0625-1.5312-1.0625-1.25 0-2.1562 1.0781-2.1562 2.3125 0 1.2812 0.98438 2.2656 2.1406 2.2656 1.3281 0 1.6562-1.2031 1.6562-1.2969s-0.10938-0.09375-0.14062-0.09375c-0.078125 0-0.10938 0.03125-0.125 0.09375-0.28125 0.92188-0.9375 1.0469-1.2969 1.0469-0.53125 0-1.4062-0.42188-1.4062-2.0312z"/>
</symbol>
<symbol id="d" overflow="visible">
<path d="m4.3594-0.0625c1.5469-0.57812 3.0156-2.3594 3.0156-4.2812 0-1.6094-1.0625-2.6875-2.5469-2.6875-2.1406 0-4.3438 2.2656-4.3438 4.5938 0 1.6562 1.125 2.6562 2.5625 2.6562 0.25 0 0.57812-0.046875 0.96875-0.15625-0.03125 0.625-0.03125 0.64062-0.03125 0.78125 0 0.3125 0 1.0938 0.82812 1.0938 1.1719 0 1.6562-1.8281 1.6562-1.9375 0-0.0625-0.0625-0.09375-0.10938-0.09375-0.078125 0-0.09375 0.046875-0.125 0.10938-0.23438 0.70312-0.8125 0.95312-1.1562 0.95312-0.46875 0-0.60938-0.26562-0.71875-1.0312zm-1.875-0.078125c-0.78125-0.3125-1.125-1.0781-1.125-1.9844 0-0.6875 0.26562-2.1094 1.0156-3.1719 0.73438-1.0156 1.6719-1.4844 2.4062-1.4844 0.98438 0 1.7188 0.78125 1.7188 2.1094 0 1-0.51562 3.3438-2.1875 4.2656-0.046875-0.34375-0.14062-1.0625-0.875-1.0625-0.53125 0-1.0156 0.48438-1.0156 1.0156 0 0.1875 0.0625 0.29688 0.0625 0.3125zm0.60938 0.10938c-0.14062 0-0.45312 0-0.45312-0.42188 0-0.40625 0.375-0.79688 0.79688-0.79688s0.60938 0.23438 0.60938 0.84375c0 0.14062-0.015625 0.15625-0.10938 0.20312-0.26562 0.10938-0.5625 0.17188-0.84375 0.17188z"/>
</symbol>
<symbol id="k" overflow="visible">
<path d="m2.3281-4.4375c0-0.1875 0-0.1875-0.20312-0.1875-0.45312 0.4375-1.0781 0.4375-1.3594 0.4375v0.25c0.15625 0 0.625 0 1-0.1875v3.5469c0 0.23438 0 0.32812-0.6875 0.32812h-0.26562v0.25c0.125 0 0.98438-0.03125 1.2344-0.03125 0.21875 0 1.0938 0.03125 1.25 0.03125v-0.25h-0.26562c-0.70312 0-0.70312-0.09375-0.70312-0.32812z"/>
</symbol>
<symbol id="j" overflow="visible">
<path d="m3.5156-1.2656h-0.23438c-0.015625 0.15625-0.09375 0.5625-0.1875 0.625-0.046875 0.046875-0.57812 0.046875-0.6875 0.046875h-1.2812c0.73438-0.64062 0.98438-0.84375 1.3906-1.1719 0.51562-0.40625 1-0.84375 1-1.5 0-0.84375-0.73438-1.3594-1.625-1.3594-0.85938 0-1.4531 0.60938-1.4531 1.25 0 0.34375 0.29688 0.39062 0.375 0.39062 0.15625 0 0.35938-0.125 0.35938-0.375 0-0.125-0.046875-0.375-0.40625-0.375 0.21875-0.48438 0.6875-0.64062 1.0156-0.64062 0.70312 0 1.0625 0.54688 1.0625 1.1094 0 0.60938-0.4375 1.0781-0.65625 1.3281l-1.6719 1.6719c-0.078125 0.0625-0.078125 0.078125-0.078125 0.26562h2.875z"/>
</symbol>
<symbol id="i" overflow="visible">
<path d="m2.5781-3.3438c0.25 0 0.73438 0 1.0781 0.20312 0.48438 0.3125 0.51562 0.84375 0.51562 0.90625 0.015625 0.14062 0.015625 0.26562 0.1875 0.26562s0.17188-0.14062 0.17188-0.3125v-2.7031c0-0.15625 0-0.3125-0.17188-0.3125s-0.1875 0.14062-0.1875 0.21875c-0.0625 1.2969-1.0781 1.3594-1.5938 1.375v-2.1094c0-0.67188 0.1875-0.67188 0.4375-0.67188h0.46875c1.3438 0 2.0156 0.6875 2.0781 1.375 0.015625 0.078125 0.015625 0.23438 0.17188 0.23438 0.17188 0 0.17188-0.15625 0.17188-0.32812v-1.2969c0-0.3125-0.015625-0.32812-0.32812-0.32812h-5.0938c-0.1875 0-0.34375 0-0.34375 0.17188s0.1875 0.17188 0.26562 0.17188c0.57812 0 0.60938 0.078125 0.60938 0.57812v4.9844c0 0.46875-0.03125 0.57812-0.5625 0.57812-0.14062 0-0.3125 0-0.3125 0.17188s0.15625 0.17188 0.34375 0.17188h5.2812c0.1875 0 0.28125 0 0.3125-0.14062 0.015625-0.015625 0.29688-1.6719 0.29688-1.7188 0-0.10938-0.09375-0.1875-0.17188-0.1875-0.14062 0-0.1875 0.14062-0.1875 0.14062-0.046875 0.26562-0.15625 0.6875-0.875 1.1094-0.53125 0.3125-1.0312 0.45312-1.5781 0.45312h-0.54688c-0.25 0-0.4375 0-0.4375-0.67188zm2.9844-3.1406v0.48438c-0.17188-0.1875-0.35938-0.34375-0.5625-0.48438zm-1.9375 2.9219c0.15625-0.0625 0.375-0.21875 0.54688-0.42188v0.82812c-0.23438-0.26562-0.54688-0.39062-0.54688-0.39062zm-2.2656-2.375c0-0.10938 0-0.35938-0.078125-0.54688h1.0625c-0.10938 0.23438-0.10938 0.5625-0.10938 0.65625v4.8281c0 0.35938 0.0625 0.5625 0.10938 0.65625h-1.0625c0.078125-0.1875 0.078125-0.4375 0.078125-0.54688zm3.7188 5.5938v-0.015625c0.3125-0.15625 0.57812-0.375 0.78125-0.54688 0 0.03125-0.078125 0.48438-0.09375 0.5625z"/>
</symbol>
<clipPath id="q">
<path d="m235 0h176.42v70h-176.42z"/>
</clipPath>
</defs>
<path transform="matrix(1 0 0 -1 .199 .299)" d="m2.1875e-4 -0.0017812 56.695-85.039 28.344 42.52 28.348-42.52 56.695 85.039" fill="none" stroke="#000" stroke-miterlimit="10" stroke-width=".3985"/>
<path transform="matrix(1 0 0 -1 .199 .299)" d="m28.348-0.0017812 56.691-85.039 28.348 42.52 28.348-42.52 56.691 85.039" fill="none" stroke="#000" stroke-dasharray="2.98883,2.98883" stroke-miterlimit="10" stroke-width=".3985"/>
<path transform="matrix(1 0 0 -1 .199 .299)" d="m2.1875e-4 -85.041h170.08" fill="none" stroke="#000" stroke-miterlimit="10" stroke-width=".3985"/>
<g>
<use x="10.455" y="96.968" xlink:href="#h"/>
<use x="17.64999" y="96.968" xlink:href="#c"/>
<use x="23.18521" y="96.968" xlink:href="#b"/>
<use x="30.377211" y="96.968" xlink:href="#g"/>
<use x="33.421782" y="96.968" xlink:href="#f"/>
<use x="38.403082" y="96.968" xlink:href="#a"/>
<use x="45.629" y="96.968" xlink:href="#d"/>
<use x="53.505" y="93.352" xlink:href="#k"/>
</g>
<path transform="matrix(1 0 0 -1 .199 .299)" d="m28.348-85.041h170.08" fill="none" stroke="#000" stroke-dasharray="2.98883,2.98883" stroke-miterlimit="10" stroke-width=".59776"/>
<g>
<use x="140.85" y="97.067" xlink:href="#h"/>
<use x="148.04499" y="97.067" xlink:href="#c"/>
<use x="153.58021" y="97.067" xlink:href="#b"/>
<use x="160.772211" y="97.067" xlink:href="#g"/>
<use x="163.816782" y="97.067" xlink:href="#f"/>
<use x="168.798082" y="97.067" xlink:href="#a"/>
<use x="176.023" y="97.067" xlink:href="#d"/>
<use x="183.899" y="93.452" xlink:href="#j"/>
</g>
<g clip-path="url(#q)">
<path transform="matrix(1 0 0 -1 .199 .299)" d="m240.95-0.0017812 42.52-63.777h85.039l42.52 63.777" fill="none" stroke="#000" stroke-miterlimit="10" stroke-width=".3985"/>
</g>
<path transform="matrix(1 0 0 -1 .199 .299)" d="m255.12-85.041h141.73" fill="none" stroke="#000" stroke-miterlimit="10" stroke-width=".3985"/>
<g>
<use x="300.018" y="95.666" xlink:href="#m"/>
<use x="307.48995" y="95.666" xlink:href="#l"/>
<use x="312.469257" y="95.666" xlink:href="#e"/>
<use x="316.896637" y="95.666" xlink:href="#a"/>
<use x="320.798987" y="95.666" xlink:href="#p"/>
<use x="325.780287" y="95.666" xlink:href="#o"/>
<use x="330.761587" y="95.666" xlink:href="#e"/>
<use x="338.516475" y="95.666" xlink:href="#n"/>
<use x="342.943855" y="95.666" xlink:href="#c"/>
<use x="348.479075" y="95.666" xlink:href="#b"/>
</g>
<path transform="matrix(1 0 0 -1 .199 .299)" d="m184.25-42.521c23.934 20.727 46.934 20.727 70.566 0.26172" fill="none" stroke="#000" stroke-miterlimit="10" stroke-width=".3985"/>
<path transform="matrix(.7559 .65463 .65463 -.7559 255.17 42.689)" d="m-2.0735 2.3917c0.37891-1.434 1.2247-2.1123 2.0714-2.3919-0.84812-0.27974-1.6917-0.95859-2.0687-2.391" fill="none" stroke="#000" stroke-linecap="round" stroke-linejoin="round" stroke-miterlimit="10" stroke-width=".3985"/>
<g>
<use x="216.563" y="23.754" xlink:href="#i"/>
</g>
</svg>
