<?xml version="1.0" encoding="UTF-8"?>
<svg version="1.1" viewBox="0 0 1600 900" xmlns="http://www.w3.org/2000/svg" xmlns:ns1="http://www.iki.fi/pav/software/textext/" xmlns:xlink="http://www.w3.org/1999/xlink">
<defs>
<radialGradient id="a" cx="183.51" cy="1139.9" r="800" gradientTransform="matrix(1.7757 -.7597 .22939 .53616 -403.84 546.31)" gradientUnits="userSpaceOnUse">
<stop stop-color="#e9ac2d" stop-opacity=".77647" offset="0"/>
<stop stop-color="#ebb035" stop-opacity=".2" offset="1"/>
</radialGradient>
<filter id="b" x="-.011792" y="-.023692" width="1.0236" height="1.0474" color-interpolation-filters="sRGB">
<feGaussianBlur stdDeviation="5.8557238"/>
</filter>
</defs>
<g transform="translate(0,-180)">
<path d="m78.701 180v85.703h-78.701v1h78.701v106.48h-78.701v1h78.701v106.48h-78.701v1h78.701v106.48h-78.701v1h78.701v106.48h-78.701v1h78.701v106.48h-78.701v1h78.701v106.48h-78.701v1h78.701v106.48h-78.701v1h78.701v60.914h1v-60.914h102.81v60.914h1v-60.914h102.81v60.914h1v-60.914h102.81v60.914h1v-60.914h102.81v60.914h1v-60.914h102.81v60.914h0.99999v-60.914h102.81v60.914h1v-60.914h102.81v60.914h1v-60.914h102.81v60.914h0.99999v-60.914h102.81v60.914h1v-60.914h102.81v60.914h1v-60.914h102.81v60.914h1v-60.914h102.81v60.914h1v-60.914h102.81v60.914h1v-60.914h102.81v60.914h1v-60.914h66.941v-1h-66.941v-106.48h66.941v-1h-66.941v-106.48h66.941v-1h-66.941v-106.48h66.941v-1h-66.941v-106.48h66.941v-1h-66.941v-106.48h66.941v-1h-66.941v-106.48h66.941v-1h-66.941v-106.48h66.941v-1h-66.941v-85.703h-1v85.703h-102.81v-85.703h-1v85.703h-102.81v-85.703h-1v85.703h-102.81v-85.703h-1v85.703h-102.81v-85.703h-1v85.703h-102.81v-85.703h-1v85.703h-102.81v-85.703h-0.99999v85.703h-102.81v-85.703h-1v85.703h-102.81v-85.703h-1v85.703h-102.81v-85.703h-0.99999v85.703h-102.81v-85.703h-1v85.703h-102.81v-85.703h-1v85.703h-102.81v-85.703h-1v85.703h-102.81v-85.703h-1v85.703h-102.81v-85.703zm1 86.703h102.81v106.48h-102.81zm103.81 0h102.81v106.48h-102.81zm103.81 0h102.81v106.48h-102.81zm103.81 0h102.81v106.48h-102.81zm103.81 0h102.81v106.48h-102.81zm103.81 0h102.81v106.48h-102.81zm103.81 0h102.81v106.48h-102.81zm103.81 0h102.81v106.48h-102.81zm103.81 0h102.81v106.48h-102.81zm103.81 0h102.81v106.48h-102.81zm103.81 0h102.81v106.48h-102.81zm103.81 0h102.81v106.48h-102.81zm103.81 0h102.81v106.48h-102.81zm103.81 0h102.81v106.48h-102.81zm-1349.5 107.48h102.81v106.48h-102.81zm103.81 0h102.81v106.48h-102.81zm103.81 0h102.81v106.48h-102.81zm103.81 0h102.81v106.48h-102.81zm103.81 0h102.81v106.48h-102.81zm103.81 0h102.81v106.48h-102.81zm103.81 0h102.81v106.48h-102.81zm103.81 0h102.81v106.48h-102.81zm103.81 0h102.81v106.48h-102.81zm103.81 0h102.81v106.48h-102.81zm103.81 0h102.81v106.48h-102.81zm103.81 0h102.81v106.48h-102.81zm103.81 0h102.81v106.48h-102.81zm103.81 0h102.81v106.48h-102.81zm-1349.5 107.48h102.81v106.48h-102.81zm103.81 0h102.81v106.48h-102.81zm103.81 0h102.81v106.48h-102.81zm103.81 0h102.81v106.48h-102.81zm103.81 0h102.81v106.48h-102.81zm103.81 0h102.81v106.48h-102.81zm103.81 0h102.81v106.48h-102.81zm103.81 0h102.81v106.48h-102.81zm103.81 0h102.81v106.48h-102.81zm103.81 0h102.81v106.48h-102.81zm103.81 0h102.81v106.48h-102.81zm103.81 0h102.81v106.48h-102.81zm103.81 0h102.81v106.48h-102.81zm103.81 0h102.81v106.48h-102.81zm-1349.5 107.48h102.81v106.48h-102.81zm103.81 0h102.81v106.48h-102.81zm103.81 0h102.81v106.48h-102.81zm103.81 0h102.81v106.48h-102.81zm103.81 0h102.81v106.48h-102.81zm103.81 0h102.81v106.48h-102.81zm103.81 0h102.81v106.48h-102.81zm103.81 0h102.81v106.48h-102.81zm103.81 0h102.81v106.48h-102.81zm103.81 0h102.81v106.48h-102.81zm103.81 0h102.81v106.48h-102.81zm103.81 0h102.81v106.48h-102.81zm103.81 0h102.81v106.48h-102.81zm103.81 0h102.81v106.48h-102.81zm-1349.5 107.48h102.81v106.48h-102.81zm103.81 0h102.81v106.48h-102.81zm103.81 0h102.81v106.48h-102.81zm103.81 0h102.81v106.48h-102.81zm103.81 0h102.81v106.48h-102.81zm103.81 0h102.81v106.48h-102.81zm103.81 0h102.81v106.48h-102.81zm103.81 0h102.81v106.48h-102.81zm103.81 0h102.81v106.48h-102.81zm103.81 0h102.81v106.48h-102.81zm103.81 0h102.81v106.48h-102.81zm103.81 0h102.81v106.48h-102.81zm103.81 0h102.81v106.48h-102.81zm103.81 0h102.81v106.48h-102.81zm-1349.5 107.48h102.81v106.48h-102.81zm103.81 0h102.81v106.48h-102.81zm103.81 0h102.81v106.48h-102.81zm103.81 0h102.81v106.48h-102.81zm103.81 0h102.81v106.48h-102.81zm103.81 0h102.81v106.48h-102.81zm103.81 0h102.81v106.48h-102.81zm103.81 0h102.81v106.48h-102.81zm103.81 0h102.81v106.48h-102.81zm103.81 0h102.81v106.48h-102.81zm103.81 0h102.81v106.48h-102.81zm103.81 0h102.81v106.48h-102.81zm103.81 0h102.81v106.48h-102.81zm103.81 0h102.81v106.48h-102.81zm-1349.5 107.48h102.81v106.48h-102.81zm103.81 0h102.81v106.48h-102.81zm103.81 0h102.81v106.48h-102.81zm103.81 0h102.81v106.48h-102.81zm103.81 0h102.81v106.48h-102.81zm103.81 0h102.81v106.48h-102.81zm103.81 0h102.81v106.48h-102.81zm103.81 0h102.81v106.48h-102.81zm103.81 0h102.81v106.48h-102.81zm103.81 0h102.81v106.48h-102.81zm103.81 0h102.81v106.48h-102.81zm103.81 0h102.81v106.48h-102.81zm103.81 0h102.81v106.48h-102.81zm103.81 0h102.81v106.48h-102.81z" color="#000000" fill="url(#a)" opacity=".53067" style="-inkscape-stroke:none"/>
<path d="m183.65 314.34a2.5 2.5 0 0 0-2.5039 2.4961l-1.1816 702.24a2.5 2.5 0 0 0 2.4941 2.5039 2.5 2.5 0 0 0 2.5059-2.4961l1.1816-702.24a2.5 2.5 0 0 0-2.4961-2.5059z" color="#000000" stroke-linecap="round" stroke-linejoin="bevel" style="-inkscape-stroke:none"/>
<g fill-rule="evenodd">
<path d="m183.63 322.84 4.9916 5.0084-4.9705-17.508-5.0295 17.492z" color="#000000" stroke-width="1pt" style="-inkscape-stroke:none"/>
<path d="m183.66 307.92-6.3848 22.207 6.3574-6.3379 6.3379 6.3594zm-8e-3 4.8555 3.6289 12.787-3.6445-3.6582-0.47266 0.4707-3.1856 3.1738z" color="#000000" style="-inkscape-stroke:none"/>
</g>
<path d="m183.64 1016.6a2.5 2.5 0 0 0-2.5 2.5 2.5 2.5 0 0 0 2.5 2.5h988.08a2.5 2.5 0 0 0 2.5-2.5 2.5 2.5 0 0 0-2.5-2.5z" color="#000000" stroke-linecap="round" style="-inkscape-stroke:none"/>
<g fill-rule="evenodd">
<path d="m1165.7 1019.1-5 5 17.5-5-17.5-5z" color="#000000" stroke-width="1pt" style="-inkscape-stroke:none"/>
<path d="m1158.4 1012.7 6.3477 6.3476-6.3477 6.3477 22.217-6.3477zm4.5801 2.6953 12.785 3.6523-12.785 3.6524 3.6523-3.6524-0.4707-0.4707z" color="#000000" style="-inkscape-stroke:none"/>
</g>
<g transform="matrix(4.6666 0 0 4.6666 1159.8 1035.2)" ns1:alignment="middle center" ns1:inkscapeversion="1.1.1" ns1:jacobian_sqrt="4.66665" ns1:pdfconverter="inkscape" ns1:preamble="/usr/share/inkscape/extensions/textext/default_packages.tex" ns1:scale="3.5" ns1:stroke-to-path="0" ns1:texconverter="pdflatex" ns1:text="$\\mathbb{I}_1$" ns1:version="1.6.0">
<defs></defs>
<g transform="translate(-148.92 -127.94)">
<g>
<g transform="translate(148.71 134.76)">
<path d="m2.75-5.9062c0-0.46875 0.03125-0.57812 0.625-0.57812 0.14062 0 0.29688 0 0.29688-0.17188s-0.14062-0.17188-0.32812-0.17188h-2.8125c-0.17188 0-0.32812 0-0.32812 0.17188s0.17188 0.17188 0.32812 0.17188c0.5625 0 0.59375 0.10938 0.59375 0.57812v4.9844c0 0.48438-0.03125 0.57812-0.60938 0.57812-0.14062 0-0.3125 0-0.3125 0.17188s0.15625 0.17188 0.32812 0.17188h2.8125c0.1875 0 0.32812 0 0.32812-0.17188s-0.15625-0.17188-0.26562-0.17188c-0.60938 0-0.65625-0.078125-0.65625-0.57812zm-1.2812-0.03125c0-0.14062 0-0.35938-0.078125-0.54688h1.1094c-0.09375 0.1875-0.09375 0.40625-0.09375 0.54688v5.0469c0 0.14062 0 0.35938 0.09375 0.54688h-1.1094c0.078125-0.1875 0.078125-0.40625 0.078125-0.54688z"/>
</g>
<g transform="translate(152.59 136.26)">
<path d="m2.3281-4.4375c0-0.1875 0-0.1875-0.20312-0.1875-0.45312 0.4375-1.0781 0.4375-1.3594 0.4375v0.25c0.15625 0 0.625 0 1-0.1875v3.5469c0 0.23438 0 0.32812-0.6875 0.32812h-0.26562v0.25c0.125 0 0.98438-0.03125 1.2344-0.03125 0.21875 0 1.0938 0.03125 1.25 0.03125v-0.25h-0.26562c-0.70312 0-0.70312-0.09375-0.70312-0.32812z"/>
</g>
</g>
</g>
</g>
<g transform="matrix(4.6666 0 0 4.6666 178.1 265.24)" ns1:alignment="middle center" ns1:inkscapeversion="1.1.1" ns1:jacobian_sqrt="4.66665" ns1:pdfconverter="inkscape" ns1:preamble="/usr/share/inkscape/extensions/textext/default_packages.tex" ns1:scale="3.5" ns1:stroke-to-path="0" ns1:texconverter="pdflatex" ns1:text="$\\mathbb{I}_2$" ns1:version="1.6.0">
<defs></defs>
<g transform="translate(-148.92 -127.94)">
<g>
<g transform="translate(148.71 134.76)">
<path d="m2.75-5.9062c0-0.46875 0.03125-0.57812 0.625-0.57812 0.14062 0 0.29688 0 0.29688-0.17188s-0.14062-0.17188-0.32812-0.17188h-2.8125c-0.17188 0-0.32812 0-0.32812 0.17188s0.17188 0.17188 0.32812 0.17188c0.5625 0 0.59375 0.10938 0.59375 0.57812v4.9844c0 0.48438-0.03125 0.57812-0.60938 0.57812-0.14062 0-0.3125 0-0.3125 0.17188s0.15625 0.17188 0.32812 0.17188h2.8125c0.1875 0 0.32812 0 0.32812-0.17188s-0.15625-0.17188-0.26562-0.17188c-0.60938 0-0.65625-0.078125-0.65625-0.57812zm-1.2812-0.03125c0-0.14062 0-0.35938-0.078125-0.54688h1.1094c-0.09375 0.1875-0.09375 0.40625-0.09375 0.54688v5.0469c0 0.14062 0 0.35938 0.09375 0.54688h-1.1094c0.078125-0.1875 0.078125-0.40625 0.078125-0.54688z"/>
</g>
<g transform="translate(152.59 136.26)">
<path d="m3.5156-1.2656h-0.23438c-0.015625 0.15625-0.09375 0.5625-0.1875 0.625-0.046875 0.046875-0.57812 0.046875-0.6875 0.046875h-1.2812c0.73438-0.64062 0.98438-0.84375 1.3906-1.1719 0.51562-0.40625 1-0.84375 1-1.5 0-0.84375-0.73438-1.3594-1.625-1.3594-0.85938 0-1.4531 0.60938-1.4531 1.25 0 0.34375 0.29688 0.39062 0.375 0.39062 0.15625 0 0.35938-0.125 0.35938-0.375 0-0.125-0.046875-0.375-0.40625-0.375 0.21875-0.48438 0.6875-0.64062 1.0156-0.64062 0.70312 0 1.0625 0.54688 1.0625 1.1094 0 0.60938-0.4375 1.0781-0.65625 1.3281l-1.6719 1.6719c-0.078125 0.0625-0.078125 0.078125-0.078125 0.26562h2.875z"/>
</g>
</g>
</g>
</g>
</g>
<g>
<g transform="matrix(4.6666 0 0 4.6666 119.37 252.15)" ns1:alignment="middle center" ns1:inkscapeversion="1.1.1" ns1:jacobian_sqrt="4.66665" ns1:pdfconverter="inkscape" ns1:preamble="/usr/share/inkscape/extensions/textext/default_packages.tex" ns1:scale="3.5" ns1:stroke-to-path="0" ns1:texconverter="pdflatex" ns1:text="$x_2$" ns1:version="1.6.0">
<defs></defs>
<g transform="translate(-149.01 -130.36)">
<g>
<g transform="translate(148.71 134.76)">
<path d="m3.3281-3.0156c0.0625-0.25 0.29688-1.1719 0.98438-1.1719 0.046875 0 0.29688 0 0.5 0.125-0.28125 0.0625-0.46875 0.29688-0.46875 0.54688 0 0.15625 0.10938 0.34375 0.375 0.34375 0.21875 0 0.53125-0.17188 0.53125-0.57812 0-0.51562-0.57812-0.65625-0.92188-0.65625-0.57812 0-0.92188 0.53125-1.0469 0.75-0.25-0.65625-0.78125-0.75-1.0781-0.75-1.0312 0-1.6094 1.2812-1.6094 1.5312 0 0.10938 0.10938 0.10938 0.125 0.10938 0.078125 0 0.10938-0.03125 0.125-0.10938 0.34375-1.0625 1-1.3125 1.3438-1.3125 0.1875 0 0.53125 0.09375 0.53125 0.67188 0 0.3125-0.17188 0.96875-0.53125 2.375-0.15625 0.60938-0.51562 1.0312-0.95312 1.0312-0.0625 0-0.28125 0-0.5-0.125 0.25-0.0625 0.46875-0.26562 0.46875-0.54688 0-0.26562-0.21875-0.34375-0.35938-0.34375-0.3125 0-0.54688 0.25-0.54688 0.57812 0 0.45312 0.48438 0.65625 0.92188 0.65625 0.67188 0 1.0312-0.70312 1.0469-0.75 0.125 0.35938 0.48438 0.75 1.0781 0.75 1.0312 0 1.5938-1.2812 1.5938-1.5312 0-0.10938-0.078125-0.10938-0.10938-0.10938-0.09375 0-0.10938 0.046875-0.14062 0.10938-0.32812 1.0781-1 1.3125-1.3125 1.3125-0.39062 0-0.54688-0.3125-0.54688-0.65625 0-0.21875 0.046875-0.4375 0.15625-0.875z"/>
</g>
<g transform="translate(154.41 136.26)">
<path d="m3.5156-1.2656h-0.23438c-0.015625 0.15625-0.09375 0.5625-0.1875 0.625-0.046875 0.046875-0.57812 0.046875-0.6875 0.046875h-1.2812c0.73438-0.64062 0.98438-0.84375 1.3906-1.1719 0.51562-0.40625 1-0.84375 1-1.5 0-0.84375-0.73438-1.3594-1.625-1.3594-0.85938 0-1.4531 0.60938-1.4531 1.25 0 0.34375 0.29688 0.39062 0.375 0.39062 0.15625 0 0.35938-0.125 0.35938-0.375 0-0.125-0.046875-0.375-0.40625-0.375 0.21875-0.48438 0.6875-0.64062 1.0156-0.64062 0.70312 0 1.0625 0.54688 1.0625 1.1094 0 0.60938-0.4375 1.0781-0.65625 1.3281l-1.6719 1.6719c-0.078125 0.0625-0.078125 0.078125-0.078125 0.26562h2.875z"/>
</g>
</g>
</g>
</g>
<g transform="matrix(4.6666 0 0 4.6666 1347.8 853.16)" ns1:alignment="middle center" ns1:inkscapeversion="1.1.1" ns1:jacobian_sqrt="4.66665" ns1:pdfconverter="inkscape" ns1:preamble="/usr/share/inkscape/extensions/textext/default_packages.tex" ns1:scale="3.5" ns1:stroke-to-path="0" ns1:texconverter="pdflatex" ns1:text="$x1$" ns1:version="1.6.0">
<defs></defs>
<g transform="translate(-149.01 -128.12)">
<g>
<g transform="translate(148.71 134.76)">
<path d="m3.3281-3.0156c0.0625-0.25 0.29688-1.1719 0.98438-1.1719 0.046875 0 0.29688 0 0.5 0.125-0.28125 0.0625-0.46875 0.29688-0.46875 0.54688 0 0.15625 0.10938 0.34375 0.375 0.34375 0.21875 0 0.53125-0.17188 0.53125-0.57812 0-0.51562-0.57812-0.65625-0.92188-0.65625-0.57812 0-0.92188 0.53125-1.0469 0.75-0.25-0.65625-0.78125-0.75-1.0781-0.75-1.0312 0-1.6094 1.2812-1.6094 1.5312 0 0.10938 0.10938 0.10938 0.125 0.10938 0.078125 0 0.10938-0.03125 0.125-0.10938 0.34375-1.0625 1-1.3125 1.3438-1.3125 0.1875 0 0.53125 0.09375 0.53125 0.67188 0 0.3125-0.17188 0.96875-0.53125 2.375-0.15625 0.60938-0.51562 1.0312-0.95312 1.0312-0.0625 0-0.28125 0-0.5-0.125 0.25-0.0625 0.46875-0.26562 0.46875-0.54688 0-0.26562-0.21875-0.34375-0.35938-0.34375-0.3125 0-0.54688 0.25-0.54688 0.57812 0 0.45312 0.48438 0.65625 0.92188 0.65625 0.67188 0 1.0312-0.70312 1.0469-0.75 0.125 0.35938 0.48438 0.75 1.0781 0.75 1.0312 0 1.5938-1.2812 1.5938-1.5312 0-0.10938-0.078125-0.10938-0.10938-0.10938-0.09375 0-0.10938 0.046875-0.14062 0.10938-0.32812 1.0781-1 1.3125-1.3125 1.3125-0.39062 0-0.54688-0.3125-0.54688-0.65625 0-0.21875 0.046875-0.4375 0.15625-0.875z"/>
</g>
<g transform="translate(154.41 134.76)">
<path d="m2.9375-6.375c0-0.25 0-0.26562-0.23438-0.26562-0.625 0.64062-1.5 0.64062-1.8125 0.64062v0.3125c0.20312 0 0.78125 0 1.2969-0.26562v5.1719c0 0.35938-0.03125 0.46875-0.92188 0.46875h-0.3125v0.3125c0.34375-0.03125 1.2031-0.03125 1.6094-0.03125 0.39062 0 1.2656 0 1.6094 0.03125v-0.3125h-0.3125c-0.90625 0-0.92188-0.10938-0.92188-0.46875z"/>
</g>
</g>
</g>
</g>
<g fill="#808080">
<path d="m183.51 257.14a1.5 1.5 0 0 0-1.5 1.5 1.5 1.5 0 0 0 1.5 1.5h1178.2a1.5 1.5 0 0 0 1.5-1.5 1.5 1.5 0 0 0-1.5-1.5z" color="#000000" opacity=".66366" stroke-linecap="round" style="-inkscape-stroke:none"/>
<path d="m183.39 251.84c-3.7448 0-6.8008 3.056-6.8008 6.8008 0 3.7448 3.0559 6.7988 6.8008 6.7988 3.7448 0 6.7988-3.054 6.7988-6.7988 0-3.7448-3.054-6.8008-6.7988-6.8008z" color="#000000" fill-rule="evenodd" stroke="#000" style="-inkscape-stroke:none"/>
</g>
<path d="m1361.7 257.14a1.5 1.5 0 0 0-1.5 1.5v580.45a1.5 1.5 0 0 0 1.5 1.5 1.5 1.5 0 0 0 1.5-1.5v-580.45a1.5 1.5 0 0 0-1.5-1.5z" color="#000000" fill="#808080" opacity=".66366" stroke-linecap="round" style="-inkscape-stroke:none"/>
<path d="m1361.7 832.17c-3.7448 0-6.7988 3.0559-6.7988 6.8008 0 3.7448 3.054 6.7988 6.7988 6.7988 3.7449 0 6.8008-3.054 6.8008-6.7988 0-3.7448-3.0559-6.8008-6.8008-6.8008z" color="#000000" fill="#999" fill-rule="evenodd" stroke="#000" stroke-width="1.2pt" style="-inkscape-stroke:none"/>
<path d="m1361.7 247.4c-0.2745-5e-3 -0.5506 2.5e-4 -0.8261 0.0156-1.4697 0.0821-2.9456 0.45396-4.3458 1.1426-4.8294 2.3752-7.2165 7.7708-6.0175 12.803l-1168.1 574.48a2.5 2.5 0 0 0-1.1406 3.3476 2.5 2.5 0 0 0 3.3476 1.1406l1168.1-574.48c3.2527 4.0236 8.9838 5.4265 13.814 3.0508 5.6008-2.7545 7.9244-9.5712 5.1699-15.172-1.9367-3.938-5.8815-6.255-10-6.3262z" color="#000000" fill="#4a0" filter="url(#b)" style="-inkscape-stroke:none;mix-blend-mode:luminosity" onmouseout="this.style.opacity = 0.0" onmouseover=""/>
<g transform="matrix(.9976 0 0 .99438 3.2889 1.3914)" fill="#4a0" stroke="#000" stroke-width="1.004" onmouseout='document.getElementById("vecglow").style.opacity = 0.0; document.getElementById("labels-layer").style.opacity = 0.4;' onmouseover='document.getElementById("vecglow").style.opacity = 1.0; document.getElementById("labels-layer").style.opacity = 1.0;'>
<path d="m1362.5 256.27a2.5 2.5 0 0 0-1.9082 0.12304l-1178.2 579.45a2.5 2.5 0 0 0-1.1406 3.3477 2.5 2.5 0 0 0 3.3476 1.1406l1178.2-579.45a2.5 2.5 0 0 0 1.1406-3.3457 2.5 2.5 0 0 0-1.4375-1.2637z" color="#000000" stroke-linecap="round" style="-inkscape-stroke:none"/>
<path d="m1361.7 247.4c-0.2745-5e-3 -0.5506 2.2e-4 -0.8261 0.0156-1.4697 0.0821-2.9457 0.45396-4.3458 1.1426-5.6007 2.7545-7.9224 9.5712-5.1679 15.172s9.5692 7.9224 15.17 5.168c5.6008-2.7545 7.9244-9.5712 5.1699-15.172-1.9367-3.938-5.8815-6.255-10-6.3262z" color="#000000" fill-rule="evenodd"/>
</g>
<g transform="matrix(4.6666 0 0 4.6666 1379.8 214.72)" ns1:alignment="middle center" ns1:inkscapeversion="1.1.1" ns1:jacobian_sqrt="4.66665" ns1:pdfconverter="inkscape" ns1:preamble="/usr/share/inkscape/extensions/textext/default_packages.tex" ns1:scale="3.5" ns1:stroke-to-path="0" ns1:texconverter="pdflatex" ns1:text="$X$" ns1:version="1.6.0">
<defs></defs>
<g transform="translate(-148.98 -127.95)">
<g>
<g transform="translate(148.71 134.76)">
<path d="m4.8281-4.0938-0.82812-1.9844c-0.03125-0.078125-0.046875-0.125-0.046875-0.125 0-0.0625 0.15625-0.25 0.57812-0.29688 0.10938-0.015625 0.20312-0.015625 0.20312-0.1875 0-0.125-0.125-0.125-0.15625-0.125-0.40625 0-0.82812 0.03125-1.25 0.03125-0.25 0-0.85938-0.03125-1.1094-0.03125-0.0625 0-0.1875 0-0.1875 0.20312 0 0.10938 0.10938 0.10938 0.23438 0.10938 0.59375 0 0.65625 0.09375 0.75 0.3125l1.1719 2.7812-2.1094 2.2656-0.125 0.10938c-0.48438 0.53125-0.95312 0.6875-1.4688 0.71875-0.125 0.015625-0.21875 0.015625-0.21875 0.20312 0 0.015625 0 0.10938 0.14062 0.10938 0.29688 0 0.625-0.03125 0.92188-0.03125 0.375 0 0.76562 0.03125 1.125 0.03125 0.0625 0 0.17188 0 0.17188-0.20312 0-0.09375-0.09375-0.10938-0.10938-0.10938-0.09375 0-0.40625-0.03125-0.40625-0.3125 0-0.15625 0.15625-0.3125 0.26562-0.4375l1.0312-1.0781 0.89062-0.98438 1 2.3906c0.046875 0.10938 0.0625 0.10938 0.0625 0.14062 0 0.078125-0.20312 0.25-0.57812 0.28125-0.10938 0.015625-0.20312 0.015625-0.20312 0.1875 0 0.125 0.10938 0.125 0.14062 0.125 0.28125 0 0.98438-0.03125 1.2656-0.03125 0.25 0 0.85938 0.03125 1.1094 0.03125 0.0625 0 0.1875 0 0.1875-0.1875 0-0.125-0.10938-0.125-0.1875-0.125-0.65625 0-0.6875-0.03125-0.85938-0.4375-0.375-0.92188-1.0469-2.4844-1.2812-3.0781 0.67188-0.70312 1.7188-1.8906 2.0469-2.1562 0.28125-0.25 0.67188-0.48438 1.2656-0.51562 0.125-0.015625 0.21875-0.015625 0.21875-0.20312 0 0 0-0.10938-0.125-0.10938-0.29688 0-0.64062 0.03125-0.9375 0.03125-0.375 0-0.75-0.03125-1.1094-0.03125-0.0625 0-0.1875 0-0.1875 0.20312 0 0.0625 0.046875 0.09375 0.10938 0.10938 0.09375 0.015625 0.40625 0.03125 0.40625 0.3125 0 0.14062-0.10938 0.26562-0.1875 0.35938z"/>
</g>
</g>
</g>
</g>
</g>
</svg>
