<?xml version="1.0" encoding="UTF-8"?>
<svg version="1.1" viewBox="0 0 1600 900" xmlns="http://www.w3.org/2000/svg" xmlns:ns1="http://www.iki.fi/pav/software/textext/" xmlns:xlink="http://www.w3.org/1999/xlink">
<defs>
<radialGradient id="a" cx="183.51" cy="1139.9" r="800" gradientTransform="matrix(1.7757 -.7597 .22939 .53616 -403.84 546.31)" gradientUnits="userSpaceOnUse">
<stop stop-color="#e9ac2d" stop-opacity=".77647" offset="0"/>
<stop stop-color="#ebb035" stop-opacity=".2" offset="1"/>
</radialGradient>
</defs>
<g transform="translate(0,-180)">
<path d="m78.701 180v85.703h-78.701v1h78.701v106.48h-78.701v1h78.701v106.48h-78.701v1h78.701v106.48h-78.701v1h78.701v106.48h-78.701v1h78.701v106.48h-78.701v1h78.701v106.48h-78.701v1h78.701v106.48h-78.701v1h78.701v60.914h1v-60.914h102.81v60.914h1v-60.914h102.81v60.914h1v-60.914h102.81v60.914h1v-60.914h102.81v60.914h1v-60.914h102.81v60.914h0.99999v-60.914h102.81v60.914h1v-60.914h102.81v60.914h1v-60.914h102.81v60.914h0.99999v-60.914h102.81v60.914h1v-60.914h102.81v60.914h1v-60.914h102.81v60.914h1v-60.914h102.81v60.914h1v-60.914h102.81v60.914h1v-60.914h102.81v60.914h1v-60.914h66.941v-1h-66.941v-106.48h66.941v-1h-66.941v-106.48h66.941v-1h-66.941v-106.48h66.941v-1h-66.941v-106.48h66.941v-1h-66.941v-106.48h66.941v-1h-66.941v-106.48h66.941v-1h-66.941v-106.48h66.941v-1h-66.941v-85.703h-1v85.703h-102.81v-85.703h-1v85.703h-102.81v-85.703h-1v85.703h-102.81v-85.703h-1v85.703h-102.81v-85.703h-1v85.703h-102.81v-85.703h-1v85.703h-102.81v-85.703h-0.99999v85.703h-102.81v-85.703h-1v85.703h-102.81v-85.703h-1v85.703h-102.81v-85.703h-0.99999v85.703h-102.81v-85.703h-1v85.703h-102.81v-85.703h-1v85.703h-102.81v-85.703h-1v85.703h-102.81v-85.703h-1v85.703h-102.81v-85.703zm1 86.703h102.81v106.48h-102.81zm103.81 0h102.81v106.48h-102.81zm103.81 0h102.81v106.48h-102.81zm103.81 0h102.81v106.48h-102.81zm103.81 0h102.81v106.48h-102.81zm103.81 0h102.81v106.48h-102.81zm103.81 0h102.81v106.48h-102.81zm103.81 0h102.81v106.48h-102.81zm103.81 0h102.81v106.48h-102.81zm103.81 0h102.81v106.48h-102.81zm103.81 0h102.81v106.48h-102.81zm103.81 0h102.81v106.48h-102.81zm103.81 0h102.81v106.48h-102.81zm103.81 0h102.81v106.48h-102.81zm-1349.5 107.48h102.81v106.48h-102.81zm103.81 0h102.81v106.48h-102.81zm103.81 0h102.81v106.48h-102.81zm103.81 0h102.81v106.48h-102.81zm103.81 0h102.81v106.48h-102.81zm103.81 0h102.81v106.48h-102.81zm103.81 0h102.81v106.48h-102.81zm103.81 0h102.81v106.48h-102.81zm103.81 0h102.81v106.48h-102.81zm103.81 0h102.81v106.48h-102.81zm103.81 0h102.81v106.48h-102.81zm103.81 0h102.81v106.48h-102.81zm103.81 0h102.81v106.48h-102.81zm103.81 0h102.81v106.48h-102.81zm-1349.5 107.48h102.81v106.48h-102.81zm103.81 0h102.81v106.48h-102.81zm103.81 0h102.81v106.48h-102.81zm103.81 0h102.81v106.48h-102.81zm103.81 0h102.81v106.48h-102.81zm103.81 0h102.81v106.48h-102.81zm103.81 0h102.81v106.48h-102.81zm103.81 0h102.81v106.48h-102.81zm103.81 0h102.81v106.48h-102.81zm103.81 0h102.81v106.48h-102.81zm103.81 0h102.81v106.48h-102.81zm103.81 0h102.81v106.48h-102.81zm103.81 0h102.81v106.48h-102.81zm103.81 0h102.81v106.48h-102.81zm-1349.5 107.48h102.81v106.48h-102.81zm103.81 0h102.81v106.48h-102.81zm103.81 0h102.81v106.48h-102.81zm103.81 0h102.81v106.48h-102.81zm103.81 0h102.81v106.48h-102.81zm103.81 0h102.81v106.48h-102.81zm103.81 0h102.81v106.48h-102.81zm103.81 0h102.81v106.48h-102.81zm103.81 0h102.81v106.48h-102.81zm103.81 0h102.81v106.48h-102.81zm103.81 0h102.81v106.48h-102.81zm103.81 0h102.81v106.48h-102.81zm103.81 0h102.81v106.48h-102.81zm103.81 0h102.81v106.48h-102.81zm-1349.5 107.48h102.81v106.48h-102.81zm103.81 0h102.81v106.48h-102.81zm103.81 0h102.81v106.48h-102.81zm103.81 0h102.81v106.48h-102.81zm103.81 0h102.81v106.48h-102.81zm103.81 0h102.81v106.48h-102.81zm103.81 0h102.81v106.48h-102.81zm103.81 0h102.81v106.48h-102.81zm103.81 0h102.81v106.48h-102.81zm103.81 0h102.81v106.48h-102.81zm103.81 0h102.81v106.48h-102.81zm103.81 0h102.81v106.48h-102.81zm103.81 0h102.81v106.48h-102.81zm103.81 0h102.81v106.48h-102.81zm-1349.5 107.48h102.81v106.48h-102.81zm103.81 0h102.81v106.48h-102.81zm103.81 0h102.81v106.48h-102.81zm103.81 0h102.81v106.48h-102.81zm103.81 0h102.81v106.48h-102.81zm103.81 0h102.81v106.48h-102.81zm103.81 0h102.81v106.48h-102.81zm103.81 0h102.81v106.48h-102.81zm103.81 0h102.81v106.48h-102.81zm103.81 0h102.81v106.48h-102.81zm103.81 0h102.81v106.48h-102.81zm103.81 0h102.81v106.48h-102.81zm103.81 0h102.81v106.48h-102.81zm103.81 0h102.81v106.48h-102.81zm-1349.5 107.48h102.81v106.48h-102.81zm103.81 0h102.81v106.48h-102.81zm103.81 0h102.81v106.48h-102.81zm103.81 0h102.81v106.48h-102.81zm103.81 0h102.81v106.48h-102.81zm103.81 0h102.81v106.48h-102.81zm103.81 0h102.81v106.48h-102.81zm103.81 0h102.81v106.48h-102.81zm103.81 0h102.81v106.48h-102.81zm103.81 0h102.81v106.48h-102.81zm103.81 0h102.81v106.48h-102.81zm103.81 0h102.81v106.48h-102.81zm103.81 0h102.81v106.48h-102.81zm103.81 0h102.81v106.48h-102.81z" color="#000000" fill="url(#a)" opacity=".53067" style="-inkscape-stroke:none"/>
<path d="m183.65 314.34a2.5 2.5 0 0 0-2.5039 2.4961l-1.1816 702.24a2.5 2.5 0 0 0 2.4941 2.5039 2.5 2.5 0 0 0 2.5059-2.4961l1.1816-702.24a2.5 2.5 0 0 0-2.4961-2.5059z" color="#000000" stroke-linecap="round" stroke-linejoin="bevel" style="-inkscape-stroke:none"/>
<g fill-rule="evenodd">
<path d="m183.63 322.84 4.9916 5.0084-4.9705-17.508-5.0295 17.492z" color="#000000" stroke-width="1pt" style="-inkscape-stroke:none"/>
<path d="m183.66 307.92-6.3848 22.207 6.3574-6.3379 6.3379 6.3594zm-8e-3 4.8555 3.6289 12.787-3.6445-3.6582-0.47266 0.4707-3.1856 3.1738z" color="#000000" style="-inkscape-stroke:none"/>
</g>
<path d="m183.64 1016.6a2.5 2.5 0 0 0-2.5 2.5 2.5 2.5 0 0 0 2.5 2.5h988.08a2.5 2.5 0 0 0 2.5-2.5 2.5 2.5 0 0 0-2.5-2.5z" color="#000000" stroke-linecap="round" style="-inkscape-stroke:none"/>
<g fill-rule="evenodd">
<path d="m1165.7 1019.1-5 5 17.5-5-17.5-5z" color="#000000" stroke-width="1pt" style="-inkscape-stroke:none"/>
<path d="m1158.4 1012.7 6.3477 6.3476-6.3477 6.3477 22.217-6.3477zm4.5801 2.6953 12.785 3.6523-12.785 3.6524 3.6523-3.6524-0.4707-0.4707z" color="#000000" style="-inkscape-stroke:none"/>
</g>
<g transform="matrix(4.6666 0 0 4.6666 1159.8 1035.2)" ns1:alignment="middle center" ns1:inkscapeversion="1.1.1" ns1:jacobian_sqrt="4.66665" ns1:pdfconverter="inkscape" ns1:preamble="/usr/share/inkscape/extensions/textext/default_packages.tex" ns1:scale="3.5" ns1:stroke-to-path="0" ns1:texconverter="pdflatex" ns1:text="$\\mathbb{I}_1$" ns1:version="1.6.0">
<defs></defs>
<g transform="translate(-148.92 -127.94)">
<g>
<g transform="translate(148.71 134.76)">
<path d="m2.75-5.9062c0-0.46875 0.03125-0.57812 0.625-0.57812 0.14062 0 0.29688 0 0.29688-0.17188s-0.14062-0.17188-0.32812-0.17188h-2.8125c-0.17188 0-0.32812 0-0.32812 0.17188s0.17188 0.17188 0.32812 0.17188c0.5625 0 0.59375 0.10938 0.59375 0.57812v4.9844c0 0.48438-0.03125 0.57812-0.60938 0.57812-0.14062 0-0.3125 0-0.3125 0.17188s0.15625 0.17188 0.32812 0.17188h2.8125c0.1875 0 0.32812 0 0.32812-0.17188s-0.15625-0.17188-0.26562-0.17188c-0.60938 0-0.65625-0.078125-0.65625-0.57812zm-1.2812-0.03125c0-0.14062 0-0.35938-0.078125-0.54688h1.1094c-0.09375 0.1875-0.09375 0.40625-0.09375 0.54688v5.0469c0 0.14062 0 0.35938 0.09375 0.54688h-1.1094c0.078125-0.1875 0.078125-0.40625 0.078125-0.54688z"/>
</g>
<g transform="translate(152.59 136.26)">
<path d="m2.3281-4.4375c0-0.1875 0-0.1875-0.20312-0.1875-0.45312 0.4375-1.0781 0.4375-1.3594 0.4375v0.25c0.15625 0 0.625 0 1-0.1875v3.5469c0 0.23438 0 0.32812-0.6875 0.32812h-0.26562v0.25c0.125 0 0.98438-0.03125 1.2344-0.03125 0.21875 0 1.0938 0.03125 1.25 0.03125v-0.25h-0.26562c-0.70312 0-0.70312-0.09375-0.70312-0.32812z"/>
</g>
</g>
</g>
</g>
<g transform="matrix(4.6666 0 0 4.6666 178.1 265.24)" ns1:alignment="middle center" ns1:inkscapeversion="1.1.1" ns1:jacobian_sqrt="4.66665" ns1:pdfconverter="inkscape" ns1:preamble="/usr/share/inkscape/extensions/textext/default_packages.tex" ns1:scale="3.5" ns1:stroke-to-path="0" ns1:texconverter="pdflatex" ns1:text="$\\mathbb{I}_2$" ns1:version="1.6.0">
<defs></defs>
<g transform="translate(-148.92 -127.94)">
<g>
<g transform="translate(148.71 134.76)">
<path d="m2.75-5.9062c0-0.46875 0.03125-0.57812 0.625-0.57812 0.14062 0 0.29688 0 0.29688-0.17188s-0.14062-0.17188-0.32812-0.17188h-2.8125c-0.17188 0-0.32812 0-0.32812 0.17188s0.17188 0.17188 0.32812 0.17188c0.5625 0 0.59375 0.10938 0.59375 0.57812v4.9844c0 0.48438-0.03125 0.57812-0.60938 0.57812-0.14062 0-0.3125 0-0.3125 0.17188s0.15625 0.17188 0.32812 0.17188h2.8125c0.1875 0 0.32812 0 0.32812-0.17188s-0.15625-0.17188-0.26562-0.17188c-0.60938 0-0.65625-0.078125-0.65625-0.57812zm-1.2812-0.03125c0-0.14062 0-0.35938-0.078125-0.54688h1.1094c-0.09375 0.1875-0.09375 0.40625-0.09375 0.54688v5.0469c0 0.14062 0 0.35938 0.09375 0.54688h-1.1094c0.078125-0.1875 0.078125-0.40625 0.078125-0.54688z"/>
</g>
<g transform="translate(152.59 136.26)">
<path d="m3.5156-1.2656h-0.23438c-0.015625 0.15625-0.09375 0.5625-0.1875 0.625-0.046875 0.046875-0.57812 0.046875-0.6875 0.046875h-1.2812c0.73438-0.64062 0.98438-0.84375 1.3906-1.1719 0.51562-0.40625 1-0.84375 1-1.5 0-0.84375-0.73438-1.3594-1.625-1.3594-0.85938 0-1.4531 0.60938-1.4531 1.25 0 0.34375 0.29688 0.39062 0.375 0.39062 0.15625 0 0.35938-0.125 0.35938-0.375 0-0.125-0.046875-0.375-0.40625-0.375 0.21875-0.48438 0.6875-0.64062 1.0156-0.64062 0.70312 0 1.0625 0.54688 1.0625 1.1094 0 0.60938-0.4375 1.0781-0.65625 1.3281l-1.6719 1.6719c-0.078125 0.0625-0.078125 0.078125-0.078125 0.26562h2.875z"/>
</g>
</g>
</g>
</g>
</g>
<g>
<path d="m907.39 84.967-725.68 752.38 3.5977 3.4727 725.68-752.38z" color="#000000" style="-inkscape-stroke:none"/>
<g fill-rule="evenodd">
<path d="m905.03 91.022 0.12772 7.0699 8.55-16.067-15.748 9.1248z" color="#000000" stroke-width="1pt" style="-inkscape-stroke:none"/>
<path d="m915.39 80.277-19.992 11.586 8.9746-0.16406 0.16211 8.9766zm-3.3691 3.4941-6.2461 11.736-0.0937-5.1641-0.66602 0.01172-4.4961 0.08008z" color="#000000" style="-inkscape-stroke:none"/>
</g>
<g transform="matrix(4.6666 0 0 4.6666 831.91 24.44)" ns1:alignment="middle center" ns1:inkscapeversion="1.1.1" ns1:jacobian_sqrt="4.66665" ns1:pdfconverter="inkscape" ns1:preamble="/usr/share/inkscape/extensions/textext/default_packages.tex" ns1:scale="3.5" ns1:stroke-to-path="0" ns1:texconverter="pdflatex" ns1:text="constants" ns1:version="1.6.0">
<defs></defs>
<g transform="translate(-149.06 -128.64)">
<g>
<g transform="translate(148.71 134.76)">
<path d="m1.1719-2.1719c0-1.625 0.8125-2.0469 1.3438-2.0469 0.09375 0 0.71875 0.015625 1.0625 0.375-0.40625 0.03125-0.46875 0.32812-0.46875 0.45312 0 0.26562 0.1875 0.45312 0.45312 0.45312s0.46875-0.15625 0.46875-0.46875c0-0.67188-0.76562-1.0625-1.5312-1.0625-1.25 0-2.1562 1.0781-2.1562 2.3125 0 1.2812 0.98438 2.2656 2.1406 2.2656 1.3281 0 1.6562-1.2031 1.6562-1.2969s-0.10938-0.09375-0.14062-0.09375c-0.078125 0-0.10938 0.03125-0.125 0.09375-0.28125 0.92188-0.9375 1.0469-1.2969 1.0469-0.53125 0-1.4062-0.42188-1.4062-2.0312z"/>
</g>
<g transform="translate(153.14 134.76)">
<path d="m4.6875-2.1406c0-1.2656-0.98438-2.3281-2.1875-2.3281-1.25 0-2.2188 1.0938-2.2188 2.3281 0 1.2969 1.0312 2.25 2.2031 2.25 1.2031 0 2.2031-0.98438 2.2031-2.25zm-2.1875 2c-0.4375 0-0.875-0.20312-1.1406-0.67188-0.25-0.4375-0.25-1.0469-0.25-1.4062 0-0.39062 0-0.92188 0.23438-1.3594 0.26562-0.45312 0.73438-0.67188 1.1406-0.67188 0.4375 0 0.85938 0.21875 1.125 0.65625 0.26562 0.42188 0.26562 1 0.26562 1.375 0 0.35938 0 0.90625-0.21875 1.3438-0.23438 0.45312-0.67188 0.73438-1.1562 0.73438z"/>
</g>
<g transform="translate(158.12 134.76)">
<path d="m1.0938-3.4219v2.6719c0 0.4375-0.10938 0.4375-0.78125 0.4375v0.3125c0.35938-0.015625 0.85938-0.03125 1.1406-0.03125 0.25 0 0.76562 0.015625 1.1094 0.03125v-0.3125c-0.67188 0-0.78125 0-0.78125-0.4375v-1.8438c0-1.0312 0.71875-1.5938 1.3438-1.5938 0.64062 0 0.75 0.53125 0.75 1.1094v2.3281c0 0.4375-0.10938 0.4375-0.78125 0.4375v0.3125c0.34375-0.015625 0.85938-0.03125 1.125-0.03125 0.25 0 0.78125 0.015625 1.1094 0.03125v-0.3125c-0.51562 0-0.76562 0-0.76562-0.29688v-1.9062c0-0.85938 0-1.1562-0.3125-1.5156-0.14062-0.17188-0.46875-0.375-1.0469-0.375-0.73438 0-1.2031 0.42188-1.4844 1.0469v-1.0469l-1.4062 0.10938v0.3125c0.70312 0 0.78125 0.0625 0.78125 0.5625z"/>
</g>
<g transform="translate(163.66 134.76)">
<path d="m2.0781-1.9375c0.21875 0.046875 1.0312 0.20312 1.0312 0.92188 0 0.5-0.34375 0.90625-1.125 0.90625-0.84375 0-1.2031-0.5625-1.3906-1.4219-0.03125-0.125-0.03125-0.15625-0.14062-0.15625-0.125 0-0.125 0.0625-0.125 0.23438v1.3281c0 0.17188 0 0.23438 0.10938 0.23438 0.046875 0 0.0625-0.015625 0.25-0.20312 0.015625-0.015625 0.015625-0.03125 0.20312-0.21875 0.4375 0.40625 0.89062 0.42188 1.0938 0.42188 1.1406 0 1.6094-0.67188 1.6094-1.3906 0-0.51562-0.29688-0.82812-0.42188-0.9375-0.32812-0.32812-0.71875-0.40625-1.1406-0.48438-0.5625-0.10938-1.2188-0.23438-1.2188-0.8125 0-0.35938 0.25-0.76562 1.1094-0.76562 1.0938 0 1.1562 0.90625 1.1719 1.2031 0 0.09375 0.09375 0.09375 0.10938 0.09375 0.14062 0 0.14062-0.046875 0.14062-0.23438v-1.0156c0-0.15625 0-0.23438-0.10938-0.23438-0.046875 0-0.078125 0-0.20312 0.125-0.03125 0.03125-0.125 0.125-0.17188 0.15625-0.375-0.28125-0.78125-0.28125-0.9375-0.28125-1.2188 0-1.5938 0.67188-1.5938 1.2344 0 0.34375 0.15625 0.625 0.42188 0.84375 0.32812 0.25 0.60938 0.3125 1.3281 0.45312z"/>
</g>
<g transform="translate(167.58 134.76)">
<path d="m1.7188-3.9844h1.4375v-0.3125h-1.4375v-1.8281h-0.25c0 0.8125-0.29688 1.875-1.2812 1.9219v0.21875h0.84375v2.75c0 1.2188 0.9375 1.3438 1.2969 1.3438 0.70312 0 0.98438-0.70312 0.98438-1.3438v-0.5625h-0.25v0.54688c0 0.73438-0.29688 1.1094-0.67188 1.1094-0.67188 0-0.67188-0.90625-0.67188-1.0781z"/>
</g>
<g transform="translate(171.46 134.76)">
<path d="m3.3125-0.75c0.046875 0.39062 0.3125 0.8125 0.78125 0.8125 0.21875 0 0.82812-0.14062 0.82812-0.95312v-0.5625h-0.25v0.5625c0 0.57812-0.25 0.64062-0.35938 0.64062-0.32812 0-0.375-0.45312-0.375-0.5v-1.9844c0-0.42188 0-0.8125-0.35938-1.1875-0.39062-0.39062-0.89062-0.54688-1.3594-0.54688-0.82812 0-1.5156 0.46875-1.5156 1.125 0 0.29688 0.20312 0.46875 0.46875 0.46875 0.28125 0 0.45312-0.20312 0.45312-0.45312 0-0.125-0.046875-0.45312-0.51562-0.45312 0.28125-0.35938 0.76562-0.46875 1.0781-0.46875 0.5 0 1.0625 0.39062 1.0625 1.2812v0.35938c-0.51562 0.03125-1.2031 0.0625-1.8281 0.35938-0.75 0.34375-1 0.85938-1 1.2969 0 0.8125 0.96875 1.0625 1.5938 1.0625 0.65625 0 1.1094-0.40625 1.2969-0.85938zm-0.0625-1.6406v1c0 0.9375-0.71875 1.2812-1.1719 1.2812-0.48438 0-0.89062-0.34375-0.89062-0.84375 0-0.54688 0.42188-1.375 2.0625-1.4375z"/>
</g>
<g transform="translate(176.44 134.76)">
<path d="m1.0938-3.4219v2.6719c0 0.4375-0.10938 0.4375-0.78125 0.4375v0.3125c0.35938-0.015625 0.85938-0.03125 1.1406-0.03125 0.25 0 0.76562 0.015625 1.1094 0.03125v-0.3125c-0.67188 0-0.78125 0-0.78125-0.4375v-1.8438c0-1.0312 0.71875-1.5938 1.3438-1.5938 0.64062 0 0.75 0.53125 0.75 1.1094v2.3281c0 0.4375-0.10938 0.4375-0.78125 0.4375v0.3125c0.34375-0.015625 0.85938-0.03125 1.125-0.03125 0.25 0 0.78125 0.015625 1.1094 0.03125v-0.3125c-0.51562 0-0.76562 0-0.76562-0.29688v-1.9062c0-0.85938 0-1.1562-0.3125-1.5156-0.14062-0.17188-0.46875-0.375-1.0469-0.375-0.73438 0-1.2031 0.42188-1.4844 1.0469v-1.0469l-1.4062 0.10938v0.3125c0.70312 0 0.78125 0.0625 0.78125 0.5625z"/>
</g>
<g transform="translate(181.7 134.76)">
<path d="m1.7188-3.9844h1.4375v-0.3125h-1.4375v-1.8281h-0.25c0 0.8125-0.29688 1.875-1.2812 1.9219v0.21875h0.84375v2.75c0 1.2188 0.9375 1.3438 1.2969 1.3438 0.70312 0 0.98438-0.70312 0.98438-1.3438v-0.5625h-0.25v0.54688c0 0.73438-0.29688 1.1094-0.67188 1.1094-0.67188 0-0.67188-0.90625-0.67188-1.0781z"/>
</g>
<g transform="translate(185.57 134.76)">
<path d="m2.0781-1.9375c0.21875 0.046875 1.0312 0.20312 1.0312 0.92188 0 0.5-0.34375 0.90625-1.125 0.90625-0.84375 0-1.2031-0.5625-1.3906-1.4219-0.03125-0.125-0.03125-0.15625-0.14062-0.15625-0.125 0-0.125 0.0625-0.125 0.23438v1.3281c0 0.17188 0 0.23438 0.10938 0.23438 0.046875 0 0.0625-0.015625 0.25-0.20312 0.015625-0.015625 0.015625-0.03125 0.20312-0.21875 0.4375 0.40625 0.89062 0.42188 1.0938 0.42188 1.1406 0 1.6094-0.67188 1.6094-1.3906 0-0.51562-0.29688-0.82812-0.42188-0.9375-0.32812-0.32812-0.71875-0.40625-1.1406-0.48438-0.5625-0.10938-1.2188-0.23438-1.2188-0.8125 0-0.35938 0.25-0.76562 1.1094-0.76562 1.0938 0 1.1562 0.90625 1.1719 1.2031 0 0.09375 0.09375 0.09375 0.10938 0.09375 0.14062 0 0.14062-0.046875 0.14062-0.23438v-1.0156c0-0.15625 0-0.23438-0.10938-0.23438-0.046875 0-0.078125 0-0.20312 0.125-0.03125 0.03125-0.125 0.125-0.17188 0.15625-0.375-0.28125-0.78125-0.28125-0.9375-0.28125-1.2188 0-1.5938 0.67188-1.5938 1.2344 0 0.34375 0.15625 0.625 0.42188 0.84375 0.32812 0.25 0.60938 0.3125 1.3281 0.45312z"/>
</g>
</g>
</g>
</g>
</g>
<g stroke="#000" stroke-linecap="round" stroke-linejoin="bevel">
<path d="m183.64 572.07h257.41v264.52" fill="none"/>
<path d="m183.51 409.15h415.25v428.93" fill="none"/>
<circle cx="441.05" cy="572.07" r="13.496" fill="#e89b61" stroke-width="2"/>
<circle cx="598.76" cy="408.15" r="13.496" fill="#ac6de6" stroke-width="2"/>
<path d="m183.64 246.13h571.78v590.45" fill="none"/>
<circle cx="755.42" cy="246.13" r="13.496" fill="#3cc77c" stroke-width="2"/>
</g>
<g>
<g transform="matrix(4.6666 0 0 4.6666 430.41 858.05)" ns1:alignment="middle center" ns1:inkscapeversion="1.1.1" ns1:jacobian_sqrt="4.66665" ns1:pdfconverter="inkscape" ns1:preamble="/usr/share/inkscape/extensions/textext/default_packages.tex" ns1:scale="3.5" ns1:stroke-to-path="0" ns1:texconverter="pdflatex" ns1:text="$a$" ns1:version="1.6.0">
<defs></defs>
<g transform="translate(-149.12 -130.36)">
<g>
<g transform="translate(148.71 134.76)">
<path d="m3.7188-3.7656c-0.1875-0.375-0.46875-0.64062-0.92188-0.64062-1.1562 0-2.3906 1.4688-2.3906 2.9219 0 0.9375 0.54688 1.5938 1.3125 1.5938 0.20312 0 0.70312-0.046875 1.2969-0.75 0.078125 0.42188 0.4375 0.75 0.90625 0.75 0.35938 0 0.57812-0.23438 0.75-0.54688 0.15625-0.35938 0.29688-0.96875 0.29688-0.98438 0-0.10938-0.09375-0.10938-0.125-0.10938-0.09375 0-0.10938 0.046875-0.14062 0.1875-0.17188 0.64062-0.34375 1.2344-0.75 1.2344-0.28125 0-0.29688-0.26562-0.29688-0.45312 0-0.21875 0.015625-0.3125 0.125-0.75 0.10938-0.40625 0.125-0.51562 0.21875-0.89062l0.35938-1.3906c0.0625-0.28125 0.0625-0.29688 0.0625-0.34375 0-0.17188-0.10938-0.26562-0.28125-0.26562-0.25 0-0.39062 0.21875-0.42188 0.4375zm-0.64062 2.5781c-0.0625 0.1875-0.0625 0.20312-0.20312 0.375-0.4375 0.54688-0.84375 0.70312-1.125 0.70312-0.5 0-0.64062-0.54688-0.64062-0.9375 0-0.5 0.3125-1.7188 0.54688-2.1875 0.3125-0.57812 0.75-0.95312 1.1562-0.95312 0.64062 0 0.78125 0.8125 0.78125 0.875s-0.015625 0.125-0.03125 0.17188z"/>
</g>
</g>
</g>
</g>
<g transform="matrix(4.6666 0 0 4.6666 589.19 855.68)" ns1:alignment="middle center" ns1:inkscapeversion="1.1.1" ns1:jacobian_sqrt="4.66665" ns1:pdfconverter="inkscape" ns1:preamble="/usr/share/inkscape/extensions/textext/default_packages.tex" ns1:scale="3.5" ns1:stroke-to-path="0" ns1:texconverter="pdflatex" ns1:text="$b$" ns1:version="1.6.0">
<defs></defs>
<g transform="translate(-149.18 -127.84)">
<g>
<g transform="translate(148.71 134.76)">
<path d="m2.375-6.8125s0-0.10938-0.125-0.10938c-0.21875 0-0.95312 0.078125-1.2188 0.10938-0.078125 0-0.1875 0.015625-0.1875 0.1875 0 0.125 0.09375 0.125 0.25 0.125 0.46875 0 0.48438 0.0625 0.48438 0.17188 0 0.0625-0.078125 0.40625-0.125 0.60938l-0.82812 3.25c-0.10938 0.5-0.15625 0.67188-0.15625 1.0156 0 0.9375 0.53125 1.5625 1.2656 1.5625 1.1719 0 2.4062-1.4844 2.4062-2.9219 0-0.90625-0.53125-1.5938-1.3281-1.5938-0.45312 0-0.875 0.29688-1.1719 0.59375zm-0.92188 3.7656c0.046875-0.21875 0.046875-0.23438 0.14062-0.34375 0.48438-0.64062 0.9375-0.79688 1.2031-0.79688 0.35938 0 0.625 0.29688 0.625 0.9375 0 0.59375-0.32812 1.7344-0.51562 2.1094-0.32812 0.67188-0.78125 1.0312-1.1719 1.0312-0.34375 0-0.67188-0.26562-0.67188-1 0-0.20312 0-0.39062 0.15625-1.0156z"/>
</g>
</g>
</g>
</g>
<g transform="matrix(4.6666 0 0 4.6666 746.38 858.05)" ns1:alignment="middle center" ns1:inkscapeversion="1.1.1" ns1:jacobian_sqrt="4.66665" ns1:pdfconverter="inkscape" ns1:preamble="/usr/share/inkscape/extensions/textext/default_packages.tex" ns1:scale="3.5" ns1:stroke-to-path="0" ns1:texconverter="pdflatex" ns1:text="$c$" ns1:version="1.6.0">
<defs></defs>
<g transform="translate(-149.12 -130.36)">
<g>
<g transform="translate(148.71 134.76)">
<path d="m3.9531-3.7812c-0.17188 0-0.29688 0-0.4375 0.125-0.17188 0.15625-0.1875 0.32812-0.1875 0.39062 0 0.25 0.1875 0.35938 0.375 0.35938 0.28125 0 0.54688-0.25 0.54688-0.64062 0-0.48438-0.46875-0.85938-1.1719-0.85938-1.3438 0-2.6719 1.4219-2.6719 2.8281 0 0.90625 0.57812 1.6875 1.625 1.6875 1.4219 0 2.25-1.0625 2.25-1.1719 0-0.0625-0.046875-0.14062-0.10938-0.14062s-0.078125 0.03125-0.14062 0.10938c-0.78125 0.98438-1.875 0.98438-1.9844 0.98438-0.625 0-0.90625-0.48438-0.90625-1.0938 0-0.40625 0.20312-1.375 0.54688-1.9844 0.3125-0.57812 0.85938-1 1.4062-1 0.32812 0 0.71875 0.125 0.85938 0.40625z"/>
</g>
</g>
</g>
</g>
<g transform="matrix(4.6666 0 0 4.6666 141 561.53)" ns1:alignment="middle center" ns1:inkscapeversion="1.1.1" ns1:jacobian_sqrt="4.66665" ns1:pdfconverter="inkscape" ns1:preamble="/usr/share/inkscape/extensions/textext/default_packages.tex" ns1:scale="3.5" ns1:stroke-to-path="0" ns1:texconverter="pdflatex" ns1:text="$a$" ns1:version="1.6.0">
<defs></defs>
<g transform="translate(-149.12 -130.36)">
<g>
<g transform="translate(148.71 134.76)">
<path d="m3.7188-3.7656c-0.1875-0.375-0.46875-0.64062-0.92188-0.64062-1.1562 0-2.3906 1.4688-2.3906 2.9219 0 0.9375 0.54688 1.5938 1.3125 1.5938 0.20312 0 0.70312-0.046875 1.2969-0.75 0.078125 0.42188 0.4375 0.75 0.90625 0.75 0.35938 0 0.57812-0.23438 0.75-0.54688 0.15625-0.35938 0.29688-0.96875 0.29688-0.98438 0-0.10938-0.09375-0.10938-0.125-0.10938-0.09375 0-0.10938 0.046875-0.14062 0.1875-0.17188 0.64062-0.34375 1.2344-0.75 1.2344-0.28125 0-0.29688-0.26562-0.29688-0.45312 0-0.21875 0.015625-0.3125 0.125-0.75 0.10938-0.40625 0.125-0.51562 0.21875-0.89062l0.35938-1.3906c0.0625-0.28125 0.0625-0.29688 0.0625-0.34375 0-0.17188-0.10938-0.26562-0.28125-0.26562-0.25 0-0.39062 0.21875-0.42188 0.4375zm-0.64062 2.5781c-0.0625 0.1875-0.0625 0.20312-0.20312 0.375-0.4375 0.54688-0.84375 0.70312-1.125 0.70312-0.5 0-0.64062-0.54688-0.64062-0.9375 0-0.5 0.3125-1.7188 0.54688-2.1875 0.3125-0.57812 0.75-0.95312 1.1562-0.95312 0.64062 0 0.78125 0.8125 0.78125 0.875s-0.015625 0.125-0.03125 0.17188z"/>
</g>
</g>
</g>
</g>
<g transform="matrix(4.6666 0 0 4.6666 143.95 393.64)" ns1:alignment="middle center" ns1:inkscapeversion="1.1.1" ns1:jacobian_sqrt="4.66665" ns1:pdfconverter="inkscape" ns1:preamble="/usr/share/inkscape/extensions/textext/default_packages.tex" ns1:scale="3.5" ns1:stroke-to-path="0" ns1:texconverter="pdflatex" ns1:text="$b$" ns1:version="1.6.0">
<defs></defs>
<g transform="translate(-149.18 -127.84)">
<g>
<g transform="translate(148.71 134.76)">
<path d="m2.375-6.8125s0-0.10938-0.125-0.10938c-0.21875 0-0.95312 0.078125-1.2188 0.10938-0.078125 0-0.1875 0.015625-0.1875 0.1875 0 0.125 0.09375 0.125 0.25 0.125 0.46875 0 0.48438 0.0625 0.48438 0.17188 0 0.0625-0.078125 0.40625-0.125 0.60938l-0.82812 3.25c-0.10938 0.5-0.15625 0.67188-0.15625 1.0156 0 0.9375 0.53125 1.5625 1.2656 1.5625 1.1719 0 2.4062-1.4844 2.4062-2.9219 0-0.90625-0.53125-1.5938-1.3281-1.5938-0.45312 0-0.875 0.29688-1.1719 0.59375zm-0.92188 3.7656c0.046875-0.21875 0.046875-0.23438 0.14062-0.34375 0.48438-0.64062 0.9375-0.79688 1.2031-0.79688 0.35938 0 0.625 0.29688 0.625 0.9375 0 0.59375-0.32812 1.7344-0.51562 2.1094-0.32812 0.67188-0.78125 1.0312-1.1719 1.0312-0.34375 0-0.67188-0.26562-0.67188-1 0-0.20312 0-0.39062 0.15625-1.0156z"/>
</g>
</g>
</g>
</g>
<g transform="matrix(4.6666 0 0 4.6666 142.6 235.6)" ns1:alignment="middle center" ns1:inkscapeversion="1.1.1" ns1:jacobian_sqrt="4.66665" ns1:pdfconverter="inkscape" ns1:preamble="/usr/share/inkscape/extensions/textext/default_packages.tex" ns1:scale="3.5" ns1:stroke-to-path="0" ns1:texconverter="pdflatex" ns1:text="$c$" ns1:version="1.6.0">
<defs></defs>
<g transform="translate(-149.12 -130.36)">
<g>
<g transform="translate(148.71 134.76)">
<path d="m3.9531-3.7812c-0.17188 0-0.29688 0-0.4375 0.125-0.17188 0.15625-0.1875 0.32812-0.1875 0.39062 0 0.25 0.1875 0.35938 0.375 0.35938 0.28125 0 0.54688-0.25 0.54688-0.64062 0-0.48438-0.46875-0.85938-1.1719-0.85938-1.3438 0-2.6719 1.4219-2.6719 2.8281 0 0.90625 0.57812 1.6875 1.625 1.6875 1.4219 0 2.25-1.0625 2.25-1.1719 0-0.0625-0.046875-0.14062-0.10938-0.14062s-0.078125 0.03125-0.14062 0.10938c-0.78125 0.98438-1.875 0.98438-1.9844 0.98438-0.625 0-0.90625-0.48438-0.90625-1.0938 0-0.40625 0.20312-1.375 0.54688-1.9844 0.3125-0.57812 0.85938-1 1.4062-1 0.32812 0 0.71875 0.125 0.85938 0.40625z"/>
</g>
</g>
</g>
</g>
<path d="m755.42 829.79c-3.7448 0-6.7988 3.0559-6.7988 6.8008 0 3.7448 3.054 6.7988 6.7988 6.7988 3.7449 0 6.8008-3.054 6.8008-6.7988 0-3.7448-3.0559-6.8008-6.8008-6.8008z" color="#000000" fill="#3cc77c" fill-rule="evenodd" stroke="#000" stroke-width="1.2pt" style="-inkscape-stroke:none"/>
<path d="m598.76 832.29c-3.7448 0-6.7988 3.0559-6.7988 6.8008 0 3.7448 3.054 6.7988 6.7988 6.7988 3.7449 0 6.8008-3.054 6.8008-6.7988 0-3.7448-3.0559-6.8008-6.8008-6.8008z" color="#000000" fill="#ac6de6" fill-rule="evenodd" stroke="#000" stroke-width="1.2pt" style="-inkscape-stroke:none"/>
<path d="m441.05 829.79c-3.7448 0-6.7988 3.0559-6.7988 6.8008 0 3.7448 3.054 6.7988 6.7988 6.7988 3.7449 0 6.8008-3.054 6.8008-6.7988 0-3.7448-3.0559-6.8008-6.8008-6.8008z" color="#000000" fill="#e89b61" fill-rule="evenodd" stroke="#000" stroke-width="1.2pt" style="-inkscape-stroke:none"/>
<path d="m183.64 565.27c-3.7448 0-6.7988 3.0559-6.7988 6.8008 0 3.7448 3.054 6.7988 6.7988 6.7988 3.7449 0 6.8008-3.054 6.8008-6.7988 0-3.7448-3.0559-6.8008-6.8008-6.8008z" color="#000000" fill="#e89b61" fill-rule="evenodd" stroke="#000" stroke-width="1.2pt" style="-inkscape-stroke:none"/>
<path d="m183.51 401.35c-3.7448 0-6.7988 3.0559-6.7988 6.8008 0 3.7448 3.054 6.7988 6.7988 6.7988 3.7449 0 6.8008-3.054 6.8008-6.7988 0-3.7448-3.0559-6.8008-6.8008-6.8008z" color="#000000" fill="#ac6de6" fill-rule="evenodd" stroke="#000" stroke-width="1.2pt" style="-inkscape-stroke:none"/>
<path d="m183.64 239.33c-3.7448 0-6.7988 3.0559-6.7988 6.8008 0 3.7448 3.054 6.7988 6.7988 6.7988 3.7449 0 6.8008-3.054 6.8008-6.7988 0-3.7448-3.0559-6.8008-6.8008-6.8008z" color="#000000" fill="#999" fill-rule="evenodd" stroke="#000" stroke-width="1.2pt" style="-inkscape-stroke:none"/>
<path d="m183.64 239.33c-3.7448 0-6.7988 3.0559-6.7988 6.8008 0 3.7448 3.054 6.7988 6.7988 6.7988 3.7449 0 6.8008-3.054 6.8008-6.7988 0-3.7448-3.0559-6.8008-6.8008-6.8008z" color="#000000" fill="#3cc77c" fill-rule="evenodd" stroke="#000" stroke-width="1.2pt" style="-inkscape-stroke:none"/>
</g>
</svg>
